<?xml version="1.0" encoding="utf-8"?>
<!-- Generator: Adobe Illustrator 18.0.0, SVG Export Plug-In . SVG Version: 6.00 Build 0)  -->
<!DOCTYPE svg PUBLIC "-//W3C//DTD SVG 1.1//EN" "http://www.w3.org/Graphics/SVG/1.1/DTD/svg11.dtd">
<svg version="1.1" id="Layer_1" xmlns="http://www.w3.org/2000/svg" xmlns:xlink="http://www.w3.org/1999/xlink" x="0px" y="0px"
	 viewBox="0 0 12 12" enable-background="new 0 0 12 12" xml:space="preserve">
<path d="M12,6c0,1.7-0.6,3.1-1.8,4.2S7.7,12,6,12s-3.1-0.6-4.2-1.8S0,7.7,0,6s0.6-3.1,1.8-4.2S4.3,0,6,0s3.1,0.6,4.2,1.8
	S12,4.3,12,6z M11.2,6c0-1.5-0.5-2.7-1.5-3.7S7.5,0.8,6,0.8S3.3,1.3,2.3,2.3S0.8,4.5,0.8,6s0.5,2.7,1.5,3.7s2.3,1.5,3.7,1.5
	s2.7-0.5,3.7-1.5S11.2,7.5,11.2,6z M9.4,7.6c0,0.1-0.1,0.1-0.1,0.3S9,8.2,8.8,8.4S8.4,8.8,8.2,9S7.6,9.4,7.2,9.5S6.4,9.8,6,9.8
	c0,0,0,0,0,0c-0.4,0-0.8-0.1-1.2-0.2S4,9.2,3.8,9S3.3,8.6,3.2,8.4S2.8,8,2.8,7.9S2.7,7.7,2.6,7.6c0-0.1-0.1-0.2,0-0.3
	s0.1-0.2,0.2-0.2s0.2,0,0.3,0s0.2,0.1,0.2,0.2c0,0,0.1,0.1,0.1,0.2s0.1,0.2,0.3,0.4s0.3,0.4,0.5,0.5S4.7,8.7,5,8.8S5.6,9,5.9,9
	c0,0,0,0,0,0c0.4,0,0.7-0.1,1-0.2s0.6-0.2,0.8-0.4s0.4-0.3,0.5-0.5s0.3-0.3,0.3-0.4s0.1-0.1,0.1-0.2c0-0.1,0.1-0.2,0.2-0.2
	s0.2,0,0.3,0s0.1,0.1,0.1,0.1s0,0.1,0,0.2S9.4,7.5,9.4,7.6z M3.4,4.9c0-0.2,0.1-0.4,0.2-0.5s0.3-0.2,0.5-0.2s0.4,0.1,0.5,0.2
	s0.2,0.3,0.2,0.5S4.8,5.3,4.7,5.4S4.3,5.6,4.1,5.6S3.7,5.6,3.6,5.4S3.4,5.1,3.4,4.9z M7.1,4.9c0-0.2,0.1-0.4,0.2-0.5
	s0.3-0.2,0.5-0.2s0.4,0.1,0.5,0.2s0.2,0.3,0.2,0.5S8.6,5.3,8.4,5.4S8.1,5.6,7.9,5.6S7.5,5.6,7.3,5.4S7.1,5.1,7.1,4.9z"/>
</svg>
