<svg viewBox="0 0 32 32" enable-background="new 0 0 32 32" xmlns="http://www.w3.org/2000/svg"><title>user-filled</title><path d="M10.9980469,3.828125 C9.45767459,5.04688109 8.6875,6.33332656 8.6875,7.6875 L8.6875,12.75 C8.6875,13.8671931 8.94140371,15.1367116 9.44921875,16.5585938 C9.79855822,17.5367443 11.6666667,20.0333333 11.6666667,20.0333333 L11.6666667,20.9 L4.625,24.3125 C4.48958266,24.3463543 4.33724043,24.414062 4.16796875,24.515625 C3.99869707,24.617188 3.76172027,24.8118475 3.45703125,25.0996094 C3.15234223,25.3873712 3,25.6666653 3,25.9375 L3,28.375 C3,28.8151064 3.16080568,29.1959619 3.48242188,29.5175781 C3.80403807,29.8391943 4.18489363,30 4.625,30 L27.375,30 C27.8151064,30 28.1959619,29.8391943 28.5175781,29.5175781 C28.8391943,29.1959619 29,28.8151064 29,28.375 L29,25.9375 C29,25.632811 28.8645847,25.3450534 28.59375,25.0742188 C28.3229153,24.8033841 28.0520847,24.617188 27.78125,24.515625 L27.375,24.3125 L20.3333333,20.9 L20.3333333,20.0333333 C20.3333333,20.0333333 22.2736463,17.5006146 22.5761719,16.6347656 C23.0670597,15.2298107 23.3125,13.9349018 23.3125,12.75 L23.3125,7.6875 C23.3125,6.33332656 22.533862,5.04688109 20.9765625,3.828125 C19.419263,2.60936891 17.751962,2 15.9746094,2 C14.1972567,2 12.5384192,2.60936891 10.9980469,3.828125 Z" id="user" /></svg>