<?xml version="1.0" encoding="utf-8"?>
<!-- Generator: Adobe Illustrator 18.0.0, SVG Export Plug-In . SVG Version: 6.00 Build 0)  -->
<!DOCTYPE svg PUBLIC "-//W3C//DTD SVG 1.1//EN" "http://www.w3.org/Graphics/SVG/1.1/DTD/svg11.dtd">
<svg version="1.1" id="Layer_1" xmlns="http://www.w3.org/2000/svg" xmlns:xlink="http://www.w3.org/1999/xlink" x="0px" y="0px"
	 viewBox="0 0 12 12" enable-background="new 0 0 12 12" xml:space="preserve">
<path d="M10.2,1.8C11.4,2.9,12,4.3,12,6s-0.6,3.1-1.8,4.2S7.7,12,6,12s-3.1-0.6-4.2-1.8S0,7.7,0,6c0-1.2,0.3-2.3,1-3.3
	S2.5,1,3.6,0.5c0,0,0.1,0,0.1,0C4.4,0.2,5.2,0,6,0C7.7,0,9.1,0.6,10.2,1.8z M2.2,9.6c0.7-1.2,1.9-2.2,3.5-3c0.3-0.1,0.6-0.3,1-0.4
	C6.5,6,6.4,5.6,6.2,5.3c0-0.1-0.1-0.1-0.1-0.2C4.7,5.6,3.2,5.8,1.8,5.8c-0.4,0-0.7,0-1.1,0c0,0.1,0,0.2,0,0.2
	C0.8,7.4,1.2,8.6,2.2,9.6z M1.8,2.8C1.3,3.5,1,4.2,0.8,5C2.4,5.2,4,5,5.8,4.5C5,3.1,4.3,2,3.7,1.3C3,1.6,2.3,2.2,1.8,2.8z M6,11.2
	c0.7,0,1.4-0.1,2-0.4C7.8,9.6,7.5,8.3,7,7C6.6,7.1,6.3,7.2,6,7.3C5.5,7.6,5,7.8,4.6,8.1S3.9,8.7,3.6,9S3.2,9.5,3.1,9.7
	S2.8,10,2.8,10.1C3.7,10.9,4.8,11.2,6,11.2z M6,0.8C5.5,0.8,4.9,0.8,4.4,1c0.6,0.8,1.3,1.9,2,3.2C7.1,4,7.6,3.7,8.1,3.4
	S8.8,2.8,9,2.6S9.3,2.2,9.4,2C8.4,1.2,7.3,0.8,6,0.8z M9.9,2.5c-0.5,1-1.6,1.8-3.1,2.4c0,0,0,0,0,0c0,0,0,0,0,0
	c0.2,0.4,0.4,0.7,0.5,1.1c1.3-0.3,2.6-0.3,3.8,0c0-0.1,0-0.1,0-0.1C11.2,4.7,10.8,3.5,9.9,2.5z M10.3,9c0.4-0.6,0.7-1.3,0.9-2.1
	c-1.1-0.3-2.2-0.3-3.5-0.1c0.5,1.2,0.8,2.5,1,3.7C9.4,10.1,9.9,9.6,10.3,9z"/>
</svg>
