<?xml version="1.0" encoding="utf-8"?>
<!-- Generator: Adobe Illustrator 18.0.0, SVG Export Plug-In . SVG Version: 6.00 Build 0)  -->
<!DOCTYPE svg PUBLIC "-//W3C//DTD SVG 1.1//EN" "http://www.w3.org/Graphics/SVG/1.1/DTD/svg11.dtd">
<svg version="1.1" id="Layer_1" xmlns="http://www.w3.org/2000/svg" xmlns:xlink="http://www.w3.org/1999/xlink" x="0px" y="0px"
	 viewBox="0 0 12 12" enable-background="new 0 0 12 12" xml:space="preserve">
<path d="M10.9,5.2v6.4c0,0.2-0.1,0.3-0.2,0.4s-0.3,0-0.4-0.1l-1.4-1.6l-1.1,1.5C7.6,11.9,7.5,12,7.4,12s-0.2,0-0.3-0.1L6,10.4
	l-1.1,1.5C4.8,11.9,4.7,12,4.6,12s-0.2-0.1-0.3-0.2l-1.1-1.5l-1.4,1.6C1.7,12,1.6,12,1.5,12c0,0-0.1,0-0.1,0
	c-0.2-0.1-0.2-0.2-0.2-0.4V5.2c0-1.4,0.5-2.7,1.4-3.7S4.7,0,6,0s2.5,0.5,3.4,1.5S10.9,3.8,10.9,5.2z M10.1,5.2
	c0-1.2-0.4-2.3-1.2-3.2S7.1,0.7,6,0.7S3.9,1.2,3.1,2.1S1.9,4,1.9,5.2v5.4L3,9.5C3,9.4,3.1,9.3,3.2,9.3h0c0.1,0,0.2,0,0.3,0.1L4.6,11
	l1.1-1.5C5.8,9.4,5.9,9.3,6,9.3s0.2,0.1,0.3,0.2L7.4,11l1.1-1.5c0.1-0.1,0.2-0.1,0.3-0.2s0.2,0,0.3,0.1l1,1.2V5.2z M4.9,4.9
	c0,0.2-0.1,0.4-0.2,0.5S4.3,5.6,4.1,5.6S3.7,5.5,3.6,5.4S3.4,5.1,3.4,4.9s0.1-0.4,0.2-0.5s0.3-0.2,0.5-0.2s0.4,0.1,0.5,0.2
	S4.9,4.7,4.9,4.9z M8.6,4.9c0,0.2-0.1,0.4-0.2,0.5S8.1,5.6,7.9,5.6S7.5,5.5,7.3,5.4S7.1,5.1,7.1,4.9s0.1-0.4,0.2-0.5
	s0.3-0.2,0.5-0.2s0.4,0.1,0.5,0.2S8.6,4.7,8.6,4.9z"/>
</svg>
