<?xml version="1.0" encoding="utf-8"?>
<!-- Generator: Adobe Illustrator 18.0.0, SVG Export Plug-In . SVG Version: 6.00 Build 0)  -->
<!DOCTYPE svg PUBLIC "-//W3C//DTD SVG 1.1//EN" "http://www.w3.org/Graphics/SVG/1.1/DTD/svg11.dtd">
<svg version="1.1" id="Layer_1" xmlns="http://www.w3.org/2000/svg" xmlns:xlink="http://www.w3.org/1999/xlink" x="0px" y="0px"
	 viewBox="0 0 12 12" enable-background="new 0 0 12 12" xml:space="preserve">
<path d="M6,12c-1.4,0-2.6-0.4-3.5-1.3s-1.4-2-1.4-3.3c0-0.4,0.1-0.9,0.2-1.4S1.6,5,1.8,4.8S2,4.4,2,4.3c0.1-0.1,0.2-0.2,0.4-0.2
	s0.3,0.1,0.3,0.3c0.1,0.6,0.3,1,0.5,1.4C3.5,6,3.7,6.3,3.9,6.4c-0.2-1-0.2-1.9-0.1-2.8c0.1-0.5,0.3-1,0.5-1.5s0.5-0.8,0.7-1
	s0.5-0.5,0.8-0.6s0.5-0.3,0.6-0.4S6.7,0,6.8,0C6.9,0,7,0,7.1,0.1s0.1,0.2,0.1,0.3c0,0.2-0.1,0.4-0.1,0.6s0,0.7,0.1,1.4
	s0.2,1.3,0.4,1.8c0.1,0.2,0.2,0.3,0.3,0.5C8,4.5,8,4.2,8.1,4c0.1-0.3,0.2-0.6,0.4-0.8s0.3-0.4,0.4-0.4s0.2-0.1,0.2-0.1
	c0.1-0.1,0.3,0,0.4,0S9.7,2.9,9.7,3c-0.1,0.5,0.1,1.1,0.5,1.7c0.3,0.5,0.5,0.9,0.6,1.2s0.1,0.8,0.1,1.4c0,1.3-0.5,2.5-1.4,3.3
	S7.4,12,6,12z M2.3,5.5C2,6.2,1.9,6.8,1.9,7.3c0,1.1,0.4,2.1,1.1,2.8s1.7,1.1,2.9,1.1c1.2,0,2.2-0.4,3-1.1s1.2-1.7,1.2-2.8
	c0-0.5,0-0.9-0.1-1.2s-0.2-0.6-0.5-1C9.3,4.7,9.1,4.2,9,3.7C8.9,3.9,8.9,4,8.8,4.2C8.6,4.8,8.6,5.3,8.6,5.9c0,0.2-0.1,0.3-0.2,0.4
	s-0.3,0-0.4-0.1C7.5,5.5,7.1,5,7,4.6C6.5,3.6,6.3,2.4,6.4,1c-1,0.6-1.6,1.5-1.9,2.8c-0.1,0.5-0.1,1,0,1.5s0.1,1,0.2,1.2
	S4.8,6.9,4.9,7c0,0.1,0,0.3-0.1,0.4S4.5,7.5,4.4,7.5c-0.1,0-0.2-0.1-0.4-0.1S3.7,7.2,3.4,7S2.8,6.4,2.6,6.1C2.5,6,2.4,5.7,2.3,5.5z"
	/>
</svg>
