<?xml version="1.0" encoding="utf-8"?>
<!-- Generator: Adobe Illustrator 18.0.0, SVG Export Plug-In . SVG Version: 6.00 Build 0)  -->
<!DOCTYPE svg PUBLIC "-//W3C//DTD SVG 1.1//EN" "http://www.w3.org/Graphics/SVG/1.1/DTD/svg11.dtd">
<svg version="1.1" id="Layer_1" xmlns="http://www.w3.org/2000/svg" xmlns:xlink="http://www.w3.org/1999/xlink" x="0px" y="0px"
	 viewBox="0 0 12 12" enable-background="new 0 0 12 12" xml:space="preserve">
<path d="M12,6.8c0,0.1,0,0.1,0,0.2v2.5c0,0.4-0.2,0.7-0.6,0.9c0,0-0.1,0.1-0.1,0.1L7.4,12H6.7H5.6c-0.1,0-0.2,0-0.3-0.1
	s-0.1-0.2-0.1-0.3v-0.4c0-0.1,0-0.2,0.1-0.3s0.2-0.1,0.3-0.1h1.1c0.1,0,0.2,0,0.3,0.1s0.1,0.2,0.1,0.3v0.1l2.4-0.9
	C9.2,10.2,9,9.9,9,9.5V7c0-0.3,0.1-0.5,0.3-0.7S9.7,6,10,6h1c0.1,0,0.2,0,0.2,0c0-0.3,0-0.6,0-0.7C11,4,10.5,2.9,9.5,2.1
	S7.4,0.8,6,0.8c-1.4,0-2.6,0.5-3.6,1.4S0.9,4.3,0.8,5.8c0,0,0,0.1,0,0.1s0,0.1,0,0.2C0.9,6,0.9,6,1,6h1c0.3,0,0.5,0.1,0.7,0.3
	S3,6.7,3,7v2.5c0,0.3-0.1,0.5-0.3,0.7S2.3,10.5,2,10.5H1c-0.3,0-0.5-0.1-0.7-0.3S0,9.8,0,9.5V7c0-0.1,0-0.1,0-0.2V6.6
	c0-0.2,0-0.5,0-0.9c0.1-1.6,0.7-3,1.8-4.1S4.4,0,6,0c1.5,0,2.9,0.5,4,1.5s1.8,2.3,1.9,3.8C12,5.7,12,6.2,12,6.7
	C12,6.7,12,6.8,12,6.8z M0.8,6.8c0,0-0.1,0.1-0.1,0.2v2.5c0,0.1,0,0.1,0.1,0.2S0.9,9.8,1,9.8h1c0.1,0,0.1,0,0.2-0.1s0.1-0.1,0.1-0.2
	V7c0-0.1,0-0.1-0.1-0.2S2.1,6.8,2,6.8H1C0.9,6.8,0.9,6.8,0.8,6.8z M9.7,9.5c0,0.1,0,0.1,0.1,0.2S9.9,9.8,10,9.8h1
	c0.1,0,0.1,0,0.2-0.1s0.1-0.1,0.1-0.2V7c0-0.1,0-0.1-0.1-0.2S11.1,6.8,11,6.8h-1c-0.1,0-0.1,0-0.2,0.1S9.7,6.9,9.7,7V9.5z"/>
</svg>
