<?xml version="1.0" encoding="utf-8"?>
<!-- Generator: Adobe Illustrator 18.0.0, SVG Export Plug-In . SVG Version: 6.00 Build 0)  -->
<!DOCTYPE svg PUBLIC "-//W3C//DTD SVG 1.1//EN" "http://www.w3.org/Graphics/SVG/1.1/DTD/svg11.dtd">
<svg version="1.1" id="Layer_1" xmlns="http://www.w3.org/2000/svg" xmlns:xlink="http://www.w3.org/1999/xlink" x="0px" y="0px"
	 viewBox="0 0 12 12" enable-background="new 0 0 12 12" xml:space="preserve">
<path d="M9.8,1.7c0.3-0.1,0.5-0.2,0.8-0.4c0.1-0.1,0.2-0.1,0.4-0.1c0.2,0,0.3,0.1,0.5,0.2c0.2,0.2,0.3,0.5,0.2,0.8
	C11.9,2.4,12,2.6,12,2.8c0,0.2,0,0.3-0.1,0.4c-0.3,0.4-0.6,0.7-0.9,1c0,0.8-0.2,1.6-0.5,2.4S9.7,8.2,9.1,8.8s-1.3,1.1-2.2,1.5
	s-1.8,0.6-2.9,0.6c-1.3,0-2.6-0.4-3.7-1.1C0.2,9.8,0.1,9.6,0,9.5S0,9.1,0,9c0.1-0.3,0.3-0.5,0.7-0.5c0,0,0.1,0,0.1,0
	c0.1,0,0.3,0,0.4,0c0.3,0,0.5,0,0.8-0.1C1.7,8,1.4,7.6,1.2,7.1c0-0.1-0.1-0.3,0-0.4C0.7,6.2,0.4,5.5,0.4,4.8v0
	c0-0.2,0.1-0.4,0.2-0.5C0.5,4,0.4,3.6,0.4,3.3c0-0.5,0.1-1,0.4-1.4C1,1.6,1.2,1.5,1.4,1.5c0,0,0,0,0,0c0.2,0,0.4,0.1,0.6,0.3
	c0.8,1,1.8,1.6,3.1,1.8c0.1-0.7,0.4-1.3,1-1.8S7.3,1.1,8,1.1C8.7,1.1,9.3,1.3,9.8,1.7z M6.5,2.5C6.1,2.9,5.9,3.4,5.9,4
	c0,0.2,0,0.3,0.1,0.5C5,4.4,4.2,4.2,3.4,3.8S2,2.9,1.5,2.2c-0.2,0.3-0.3,0.7-0.3,1c0,0.8,0.3,1.3,1,1.8c-0.4,0-0.7-0.1-1-0.3v0
	c0,0.5,0.2,0.9,0.5,1.3s0.7,0.6,1.2,0.7c-0.2,0-0.4,0.1-0.6,0.1c-0.1,0-0.3,0-0.4,0c0.1,0.4,0.4,0.8,0.8,1c0.4,0.3,0.8,0.4,1.3,0.4
	C3.2,8.9,2.3,9.2,1.3,9.2c-0.2,0-0.3,0-0.5,0c1,0.6,2.1,0.9,3.3,0.9c1,0,1.8-0.2,2.6-0.5s1.4-0.8,1.9-1.4S9.5,7,9.8,6.3
	s0.4-1.4,0.4-2.1c0-0.1,0-0.2,0-0.3c0.4-0.3,0.8-0.7,1.1-1.1C10.9,3,10.4,3.1,10,3.2c0.5-0.3,0.8-0.6,1-1.1
	c-0.4,0.2-0.9,0.4-1.4,0.5C9.2,2.1,8.6,1.9,8,1.9C7.4,1.9,6.9,2.1,6.5,2.5z"/>
</svg>
