<?xml version="1.0" encoding="utf-8"?>
<!-- Generator: Adobe Illustrator 18.0.0, SVG Export Plug-In . SVG Version: 6.00 Build 0)  -->
<!DOCTYPE svg PUBLIC "-//W3C//DTD SVG 1.1//EN" "http://www.w3.org/Graphics/SVG/1.1/DTD/svg11.dtd">
<svg version="1.1" id="Layer_1" xmlns="http://www.w3.org/2000/svg" xmlns:xlink="http://www.w3.org/1999/xlink" x="0px" y="0px"
	 viewBox="0 0 12 12" enable-background="new 0 0 12 12" xml:space="preserve">
<path d="M6.7,0.2c0.1,0.1,0.2,0.3,0.2,0.5v1.9h1.9c0.2,0,0.4,0.1,0.5,0.2s0.2,0.3,0.2,0.5v1.1c0,0.2-0.1,0.4-0.2,0.5S9,5.2,8.8,5.2
	H6.9v2.5c0,0.5,0,0.8,0,0.9c0.1,0.1,0.2,0.1,0.4,0.1c0.5,0,1-0.1,1.3-0.4C8.9,8.3,9,8.2,9.2,8.2c0.1,0,0.2,0,0.3,0.1
	C9.8,8.5,9.9,8.7,9.9,9v1.7c0,0.3-0.1,0.6-0.4,0.7c-0.3,0.2-0.7,0.3-1.3,0.4l-0.1,0C7.7,12,7.3,12,6.8,12c-1.5,0-2.6-0.6-3-1.9
	C3.6,9.8,3.6,9.3,3.6,8.7V5.2H2.8C2.6,5.2,2.4,5.2,2.3,5S2.1,4.7,2.1,4.5V3.4c0-0.2,0.1-0.4,0.2-0.5s0.3-0.2,0.5-0.2
	c0.1,0,0.2,0,0.3-0.1s0.2-0.1,0.4-0.2S3.8,2,3.9,1.7c0.1-0.3,0.2-0.6,0.2-1c0-0.2,0.1-0.4,0.2-0.5S4.6,0,4.8,0h1.4
	C6.4,0,6.6,0.1,6.7,0.2z M4.8,0.8c0,0.5-0.1,1-0.2,1.4S4.2,2.8,4,2.9S3.5,3.2,3.4,3.3S3,3.4,2.8,3.4v1.1h1.5v4.2
	c0,0.5,0.1,0.9,0.2,1.1c0.4,0.9,1.1,1.4,2.3,1.4c0.4,0,0.8,0,1.1-0.1c0.5-0.1,1-0.3,1.2-0.4V9C8.7,9.4,8.1,9.5,7.4,9.5
	c-0.3,0-0.6-0.1-0.8-0.2S6.3,9.1,6.3,8.9C6.2,8.8,6.2,8.4,6.2,7.8l0-3.3h2.6V3.4H6.2V0.8H4.8z"/>
</svg>
