<svg viewBox="0 0 32 32" enable-background="new 0 0 32 32" xmlns="http://www.w3.org/2000/svg"><title>user-filled</title><path d="M15.9707031,1 C13.9199116,1 12.0058683,1.70311797 10.2285156,3.109375 C8.45116299,4.51563203 7.5625,5.99999219 7.5625,7.5625 L7.5625,12.25 C7.5625,13.5390689 7.85546582,15.003898 8.44140625,16.6445312 C9.02734668,18.2851645 9.90624414,19.5742141 11.078125,20.5117188 L2.875,24.4375 C2.71874922,24.4765627 2.54296973,24.5546869 2.34765625,24.671875 C2.15234277,24.7890631 1.87890801,25.0136702 1.52734375,25.3457031 C1.17577949,25.677736 1,25.9999984 1,26.3125 L1,29.125 C1,29.632815 1.18554502,30.0722638 1.55664062,30.4433594 C1.92773623,30.814455 2.36718496,31 2.875,31 L29.125,31 C29.632815,31 30.0722638,30.814455 30.4433594,30.4433594 C30.814455,30.0722638 31,29.632815 31,29.125 L31,26.3125 C31,25.9609357 30.8437516,25.6289078 30.53125,25.3164062 C30.2187484,25.0039047 29.9062516,24.7890631 29.59375,24.671875 L29.125,24.4375 L20.9804688,20.5703125 C22.1523496,19.6328078 23.0214815,18.3535237 23.5878906,16.7324219 C24.1542997,15.11132 24.4375,13.6171943 24.4375,12.25 L24.4375,7.5625 C24.4375,5.99999219 23.5390715,4.51563203 21.7421875,3.109375 C19.9453035,1.70311797 18.0214946,1 15.9707031,1 L15.9707031,1 Z" /></svg>