<?xml version="1.0" encoding="utf-8"?>
<!-- Generator: Adobe Illustrator 18.0.0, SVG Export Plug-In . SVG Version: 6.00 Build 0)  -->
<!DOCTYPE svg PUBLIC "-//W3C//DTD SVG 1.1//EN" "http://www.w3.org/Graphics/SVG/1.1/DTD/svg11.dtd">
<svg version="1.1" id="Layer_1" xmlns="http://www.w3.org/2000/svg" xmlns:xlink="http://www.w3.org/1999/xlink" x="0px" y="0px"
	 viewBox="0 0 12 12" enable-background="new 0 0 12 12" xml:space="preserve">
<path d="M11.9,6c0,0.1-0.1,0.3-0.2,0.3l-5.6,3c-0.1,0-0.1,0-0.2,0s-0.1,0-0.2,0l-5.6-3C0.1,6.2,0,6.1,0,6s0.1-0.3,0.2-0.3L1.4,5
	l0.8,0.4L1.2,6l4.8,2.6L10.8,6L9.8,5.5l0.8-0.4l1.1,0.6C11.9,5.7,11.9,5.8,11.9,6z M11.9,8.6c0,0.1-0.1,0.3-0.2,0.3l-5.6,3
	c-0.1,0-0.1,0-0.2,0s-0.1,0-0.2,0l-5.6-3C0.1,8.8,0,8.7,0,8.6s0.1-0.3,0.2-0.3l1.1-0.5l0.8,0.4L1.2,8.6l4.8,2.6l4.8-2.6L9.9,8.2
	l0.8-0.4l1.1,0.5C11.9,8.3,11.9,8.4,11.9,8.6z M0.1,3.2c0-0.1,0.1-0.3,0.2-0.3L5.9,0C6,0,6.1,0,6.2,0l5.6,2.8
	C11.9,2.9,12,3.1,12,3.2s-0.1,0.3-0.2,0.3l-5.6,3c-0.1,0-0.1,0-0.2,0s-0.1,0-0.2,0l-5.6-3C0.1,3.5,0.1,3.3,0.1,3.2z M1.2,3.2L6,5.8
	l4.8-2.6L6.1,0.8L1.2,3.2z"/>
</svg>
