<?xml version="1.0" encoding="utf-8"?>
<!-- Generator: Adobe Illustrator 18.0.0, SVG Export Plug-In . SVG Version: 6.00 Build 0)  -->
<!DOCTYPE svg PUBLIC "-//W3C//DTD SVG 1.1//EN" "http://www.w3.org/Graphics/SVG/1.1/DTD/svg11.dtd">
<svg version="1.1" id="Layer_1" xmlns="http://www.w3.org/2000/svg" xmlns:xlink="http://www.w3.org/1999/xlink" x="0px" y="0px"
	 viewBox="0 0 12 12" enable-background="new 0 0 12 12" xml:space="preserve">
<path d="M11.8,3.2C11.9,3.4,12,3.6,12,3.8v5.1c0,0.2-0.1,0.4-0.2,0.6s-0.4,0.2-0.6,0.2H9.7V12H2.2V9.8H0.8c-0.2,0-0.4-0.1-0.6-0.2
	S0,9.1,0,8.9V3.8c0-0.2,0.1-0.4,0.2-0.6S0.6,3,0.8,3h1.4V0h7.5v3h1.4C11.4,3,11.6,3.1,11.8,3.2z M11.2,3.8
	C11.2,3.8,11.2,3.7,11.2,3.8L0.8,3.7c-0.1,0-0.1,0-0.1,0.1v5.1C0.7,9,0.8,9,0.8,9h1.4V6.4h7.5V9h1.4c0.1,0,0.1,0,0.1-0.1V3.8z M3,3
	h6V0.8H3V3z M9,7.1H3v4.1h6V7.1z M10,4.6c0.1,0.1,0.1,0.2,0.1,0.3s0,0.2-0.1,0.3S9.9,5.2,9.7,5.2H9.4c-0.1,0-0.2,0-0.3-0.1
	S9,5,9,4.9s0-0.2,0.1-0.3s0.2-0.1,0.3-0.1h0.4C9.9,4.5,9.9,4.5,10,4.6z"/>
</svg>
