<?xml version="1.0" encoding="utf-8"?>
<!-- Generator: Adobe Illustrator 18.0.0, SVG Export Plug-In . SVG Version: 6.00 Build 0)  -->
<!DOCTYPE svg PUBLIC "-//W3C//DTD SVG 1.1//EN" "http://www.w3.org/Graphics/SVG/1.1/DTD/svg11.dtd">
<svg version="1.1" id="Layer_1" xmlns="http://www.w3.org/2000/svg" xmlns:xlink="http://www.w3.org/1999/xlink" x="0px" y="0px"
	 viewBox="0 0 12 12" enable-background="new 0 0 12 12" xml:space="preserve">
<path d="M11.9,1.8C12,1.9,12,2,12,2.1v9.6c0,0.2-0.1,0.3-0.3,0.3c0,0-0.1,0-0.1,0l-3.8-1.5L4.1,12l-3.8-1.5c-0.1,0-0.2-0.1-0.2-0.2
	S0,10.1,0,10V0.3C0,0.1,0.1,0,0.3,0c0,0,0.1,0,0.1,0l3.8,1.5L7.9,0l3.8,1.6C11.7,1.6,11.8,1.7,11.9,1.8z M0.7,9.8l3,1.2V2.1L0.7,1
	V9.8z M4.5,11.1l3-1.2V0.9l-3,1.2V11.1z M11.2,2.2L8.2,1v8.9l3,1.1V2.2z"/>
</svg>
