<?xml version="1.0" encoding="utf-8"?>
<!-- Generator: Adobe Illustrator 18.0.0, SVG Export Plug-In . SVG Version: 6.00 Build 0)  -->
<!DOCTYPE svg PUBLIC "-//W3C//DTD SVG 1.1//EN" "http://www.w3.org/Graphics/SVG/1.1/DTD/svg11.dtd">
<svg version="1.1" id="Layer_1" xmlns="http://www.w3.org/2000/svg" xmlns:xlink="http://www.w3.org/1999/xlink" x="0px" y="0px"
	 viewBox="0 0 12 12" enable-background="new 0 0 12 12" xml:space="preserve">
<path d="M9.3,8.6c-0.4,0-0.7-0.1-1-0.2S7.7,8.2,7.5,8.1S7.2,7.9,7,7.7C6.9,7.6,6.7,7.5,6.6,7.3C6.3,7.1,6.1,6.9,6,6.9c0,0,0,0,0,0
	s0,0,0,0c0,0-0.2,0.1-0.4,0.4C5.3,7.5,5.1,7.6,4.9,7.7l0,0C4.7,7.9,4.5,8.1,4.3,8.2S3.9,8.4,3.6,8.5S3,8.6,2.6,8.6
	c-0.9,0-1.6-0.3-2.1-1C0,7-0.1,6.3,0.1,5.5c0-0.1,0.1-0.2,0.2-0.3s0.3,0,0.4,0c0.2,0.1,0.4,0.2,0.7,0.2c0.2,0,0.4,0,0.7-0.1
	c0.1-0.1,0.2-0.1,0.3-0.2s0.2-0.2,0.4-0.4S2.9,4.4,3,4.3C3.2,4.1,3.3,4,3.4,3.9s0.3-0.2,0.5-0.3c0.2-0.1,0.4-0.2,0.7-0.2
	c0.5,0,1,0.2,1.4,0.6c0.4-0.4,0.9-0.6,1.4-0.6c0.2,0,0.5,0.1,0.7,0.2s0.4,0.2,0.5,0.3S8.8,4.1,9,4.3c0.1,0,0.2,0.2,0.3,0.3
	S9.5,5,9.6,5.1S9.8,5.3,10,5.3c0.2,0.1,0.4,0.1,0.7,0.1c0.3,0,0.6-0.1,0.8-0.2c0.1-0.1,0.2-0.1,0.4,0s0.2,0.1,0.2,0.3
	c0.2,0.8,0,1.6-0.5,2.2c-0.2,0.3-0.6,0.6-1,0.7S9.7,8.6,9.3,8.6z M6,6.2C6,6.2,6,6.2,6,6.2h0.1c0,0,0,0,0,0c0.2,0,0.5,0.2,0.9,0.6
	C7.2,6.9,7.3,7,7.5,7.1c0.2,0.2,0.3,0.3,0.5,0.4s0.3,0.2,0.6,0.3S9,7.9,9.3,7.9c0.7,0,1.2-0.2,1.6-0.7c0.2-0.3,0.4-0.6,0.4-1.1
	c-0.2,0.1-0.4,0.1-0.7,0.1c-0.3,0-0.6-0.1-1-0.2C9.5,5.9,9.4,5.8,9.2,5.7S8.9,5.4,8.7,5.2S8.5,4.9,8.4,4.8C8.2,4.6,8,4.4,7.9,4.3
	S7.5,4.1,7.4,4.1C7,4.1,6.6,4.3,6.3,4.7C6.2,4.8,6.1,4.9,6,4.9s-0.2,0-0.3-0.1C5.4,4.3,5,4.1,4.6,4.1c-0.2,0-0.4,0.1-0.5,0.2
	C3.9,4.4,3.7,4.6,3.5,4.8c0,0-0.1,0.2-0.3,0.4S2.9,5.6,2.8,5.7S2.5,5.9,2.3,6C2,6.1,1.7,6.2,1.4,6.2c-0.2,0-0.4,0-0.6-0.1
	c0,0.4,0.1,0.8,0.4,1.1C1.5,7.6,2,7.9,2.6,7.9c0.3,0,0.5,0,0.8-0.1S3.8,7.6,4,7.5c0.1-0.1,0.3-0.2,0.5-0.4l0,0C4.6,7,4.8,6.9,5,6.7
	c0.4-0.3,0.6-0.5,0.8-0.5C5.9,6.2,5.9,6.2,6,6.2z"/>
</svg>
