<?xml version="1.0" encoding="utf-8"?>
<!-- Generator: Adobe Illustrator 18.0.0, SVG Export Plug-In . SVG Version: 6.00 Build 0)  -->
<!DOCTYPE svg PUBLIC "-//W3C//DTD SVG 1.1//EN" "http://www.w3.org/Graphics/SVG/1.1/DTD/svg11.dtd">
<svg version="1.1" id="Layer_1" xmlns="http://www.w3.org/2000/svg" xmlns:xlink="http://www.w3.org/1999/xlink" x="0px" y="0px"
	 viewBox="0 0 12 12" enable-background="new 0 0 12 12" xml:space="preserve">
<path d="M10.4,5.7L6,1.3c-0.2-0.2-0.5-0.2-0.6,0s-0.2,0.5,0,0.6l3.6,3.6H2C1.7,5.5,1.5,5.8,1.5,6S1.7,6.4,2,6.4h7l-3.6,3.6
	c-0.2,0.2-0.2,0.5,0,0.6c0.1,0.1,0.2,0.1,0.3,0.1s0.2,0,0.3-0.1l4.4-4.4c0.1-0.1,0.1-0.2,0.1-0.3S10.4,5.8,10.4,5.7z"/>
</svg>
