<?xml version="1.0" encoding="utf-8"?>
<!-- Generator: Adobe Illustrator 18.0.0, SVG Export Plug-In . SVG Version: 6.00 Build 0)  -->
<!DOCTYPE svg PUBLIC "-//W3C//DTD SVG 1.1//EN" "http://www.w3.org/Graphics/SVG/1.1/DTD/svg11.dtd">
<svg version="1.1" id="Layer_1" xmlns="http://www.w3.org/2000/svg" xmlns:xlink="http://www.w3.org/1999/xlink" x="0px" y="0px"
	 viewBox="0 0 12 12" enable-background="new 0 0 12 12" xml:space="preserve">
<path d="M11.7,3.4C11.8,4,11.9,4.4,12,4.9s0,0.8,0,1.2c0,2-0.3,3.2-1,3.7c-0.5,0.4-2.2,0.5-5,0.5c-2.7,0-4.3-0.2-4.9-0.5
	C0.8,9.7,0.6,9.3,0.4,8.7S0.1,7.7,0.1,7.3S0,6.5,0,6.1c0-0.4,0-0.7,0.1-1.2S0.2,4,0.4,3.4s0.4-1,0.7-1.2C1.7,1.8,3.3,1.7,6,1.7
	c2.8,0,4.5,0.2,5,0.5C11.3,2.4,11.5,2.8,11.7,3.4z M11.1,8.2c0.1-0.5,0.2-1.2,0.2-2.1s-0.1-1.6-0.2-2.2s-0.3-1-0.5-1.1
	C10.2,2.6,8.7,2.4,6,2.4c-2.6,0-4.1,0.1-4.5,0.4C1.3,2.9,1.2,3.3,1,3.9S0.8,5.2,0.8,6.1c0,0.8,0.1,1.5,0.2,2.1s0.3,0.9,0.5,1
	C1.9,9.4,3.4,9.6,6,9.6c2.7,0,4.2-0.1,4.6-0.4C10.8,9,10.9,8.7,11.1,8.2z M8.6,6c0,0.1-0.1,0.2-0.2,0.3L5.1,8.4c-0.1,0-0.1,0-0.2,0
	s-0.1,0-0.2,0C4.6,8.4,4.5,8.2,4.5,8.1V4c0-0.2,0.1-0.3,0.2-0.3s0.2-0.1,0.4,0l3.4,2.1C8.6,5.8,8.6,5.9,8.6,6z M7.5,6L5.2,4.6v2.8
	L7.5,6z"/>
</svg>
