<?xml version="1.0" encoding="utf-8"?>
<!-- Generator: Adobe Illustrator 18.0.0, SVG Export Plug-In . SVG Version: 6.00 Build 0)  -->
<!DOCTYPE svg PUBLIC "-//W3C//DTD SVG 1.1//EN" "http://www.w3.org/Graphics/SVG/1.1/DTD/svg11.dtd">
<svg version="1.1" id="Layer_1" xmlns="http://www.w3.org/2000/svg" xmlns:xlink="http://www.w3.org/1999/xlink" x="0px" y="0px"
	 viewBox="0 0 12 12" enable-background="new 0 0 12 12" xml:space="preserve">
<path d="M9,0.3c0.2,0.2,0.3,0.5,0.3,0.8v9.8c0,0.3-0.1,0.6-0.3,0.8S8.6,12,8.2,12H3.8c-0.3,0-0.6-0.1-0.8-0.3s-0.3-0.5-0.3-0.8V1.1
	c0-0.3,0.1-0.6,0.3-0.8S3.4,0,3.8,0h4.5C8.6,0,8.8,0.1,9,0.3z M8.6,1.1c0-0.1,0-0.2-0.1-0.3S8.4,0.8,8.2,0.8H3.8
	c-0.1,0-0.2,0-0.3,0.1S3.4,1,3.4,1.1v9.8c0,0.1,0,0.2,0.1,0.3s0.2,0.1,0.3,0.1h4.5c0.1,0,0.2,0,0.3-0.1s0.1-0.2,0.1-0.3V1.1z M7,1.2
	c0.1,0.1,0.1,0.2,0.1,0.3s0,0.2-0.1,0.3S6.9,1.9,6.8,1.9H5.2c-0.1,0-0.2,0-0.3-0.1S4.9,1.6,4.9,1.5s0-0.2,0.1-0.3s0.2-0.1,0.3-0.1
	h1.5C6.9,1.1,6.9,1.2,7,1.2z M6.8,10.1c0,0.2-0.1,0.4-0.2,0.5S6.2,10.9,6,10.9s-0.4-0.1-0.5-0.2s-0.2-0.3-0.2-0.5s0.1-0.4,0.2-0.5
	S5.8,9.4,6,9.4s0.4,0.1,0.5,0.2S6.8,9.9,6.8,10.1z"/>
</svg>
