<?xml version="1.0" encoding="utf-8"?>
<!-- Generator: Adobe Illustrator 18.0.0, SVG Export Plug-In . SVG Version: 6.00 Build 0)  -->
<!DOCTYPE svg PUBLIC "-//W3C//DTD SVG 1.1//EN" "http://www.w3.org/Graphics/SVG/1.1/DTD/svg11.dtd">
<svg version="1.1" id="Layer_1" xmlns="http://www.w3.org/2000/svg" xmlns:xlink="http://www.w3.org/1999/xlink" x="0px" y="0px"
	 viewBox="0 0 12 12" enable-background="new 0 0 12 12" xml:space="preserve">
<path d="M12,5.6v5.6c0,0.2-0.1,0.4-0.2,0.5S11.5,12,11.2,12H0.8c-0.2,0-0.4-0.1-0.5-0.2S0,11.5,0,11.2V5.6C0,5.4,0.1,5.2,0.3,5
	l1.9-1.9V1.9c0-0.1,0-0.2,0.1-0.3s0.2-0.1,0.3-0.1h1.2l1.4-1.1C5.4,0.1,5.7,0,6,0s0.6,0.1,0.8,0.3l1.4,1.1h1.2c0.1,0,0.2,0,0.3,0.1
	s0.1,0.2,0.1,0.3v1.2l2,2c0,0,0.1,0.1,0.1,0.1h0C11.9,5.3,12,5.4,12,5.6C12,5.6,12,5.6,12,5.6z M0.8,6.4v4.4l2.4-2.2L0.8,6.4z
	 M1.2,5.2L0.9,5.5l1.4,1.2V4.1L1.2,5.2L1.2,5.2z M1.3,11.2h9.5L6.3,7.2C6.2,7.1,6.1,7.1,6,7.1c-0.1,0-0.2,0-0.3,0.1L4.1,8.7
	c0,0,0,0,0,0.1c0,0-0.1,0.1-0.1,0.1L1.3,11.2z M3,2.2v5.1L3.7,8l1.5-1.4C5.4,6.4,5.7,6.3,6,6.3s0.5,0.1,0.8,0.3L8.3,8L9,7.5V2.2H3z
	 M5,1.5h2.1L6.3,0.8C6.2,0.8,6.1,0.7,6,0.7s-0.2,0-0.3,0.1L5,1.5z M11.2,10.7V6.4L8.9,8.6L11.2,10.7z M9.8,4.1v2.7l1.4-1.2l-0.7-0.7
	h0L9.8,4.1z"/>
</svg>
