<svg viewBox="0 0 32 32" enable-background="new 0 0 32 32" xmlns="http://www.w3.org/2000/svg"><title>star-filled</title><path d="M14.0797242,2.23046875 L10.6812867,9.26171875 L2.82972422,10.4335938 C1.97034493,10.5507818 1.40394434,11.0195271 1.13050547,11.8398438 C0.857066608,12.6601604 1.01331505,13.3632783 1.59925547,13.9492188 L7.34144297,19.6914062 L5.99378672,27.6015625 C5.87659864,28.5000045 6.18909551,29.2031225 6.93128672,29.7109375 C7.28285098,29.9453137 7.69300313,30.0625 8.16175547,30.0625 C8.51331973,30.0625 8.86487872,29.9843758 9.21644297,29.828125 L16.013318,26.1367188 L22.810193,29.828125 C23.1617572,29.9843758 23.5133162,30.0625 23.8648805,30.0625 C24.3336328,30.0625 24.743785,29.9453137 25.0953492,29.7109375 C25.8375404,29.2031225 26.1500373,28.5000045 26.0328492,27.6015625 L24.685193,19.6914062 L30.4273805,13.9492188 C31.0133209,13.3632783 31.1695693,12.6601604 30.8961305,11.8398438 C30.6226916,11.0195271 30.056291,10.5507818 29.1969117,10.4335938 L21.3453492,9.26171875 L17.9469117,2.23046875 C17.5953475,1.41015215 16.9605882,1 16.0426148,1 C15.1246415,1 14.4703512,1.41015215 14.0797242,2.23046875 Z" /></svg>