<svg viewBox="0 0 32 32" enable-background="new 0 0 32 32" xmlns="http://www.w3.org/2000/svg"><title>volume-2-filled</title><path d="M17.4355469,3.11300297 C17.103514,2.93722084 16.7812516,2.96651742 16.46875,3.2008936 L7.03515625,10.5837061 L3.9296875,10.5837061 C3.1093709,10.5837061 2.41601846,10.8278443 1.84960938,11.316128 C1.28320029,11.8044117 1,12.4001088 1,13.1032373 L1.05859375,19.3141748 C1.05859375,19.9782407 1.34179404,20.5641723 1.90820312,21.0719873 C2.47461221,21.5798024 3.16796465,21.8337061 3.98828125,21.8337061 L7.09375,21.8337061 L16.46875,29.2165186 C16.6250008,29.3337067 16.8007803,29.3922998 16.9960938,29.3922998 C17.1523445,29.3922998 17.2890619,29.3532377 17.40625,29.2751123 C17.7578143,29.1188616 17.9335938,28.8454268 17.9335938,28.4547998 L17.9335938,3.96261235 C17.9335938,3.57198539 17.7675798,3.2887851 17.4355469,3.11300297 L17.4355469,3.11300297 Z M25.4335937,16.3844873 C25.4335937,15.1344811 25.0527382,14.040742 24.2910156,13.1032373 C23.5292931,12.1657327 22.5625059,11.5993321 21.390625,11.4040186 C21.1171861,11.3649559 20.8730479,11.4137835 20.6582031,11.550503 C20.4433583,11.6872224 20.3164064,11.8922985 20.2773437,12.1657373 C20.2382811,12.4391762 20.2968742,12.6735489 20.453125,12.8688623 C20.6093758,13.0641758 20.8046863,13.1813621 21.0390625,13.2204248 C21.7812537,13.3766756 22.3867164,13.7380001 22.8554687,14.3044092 C23.3242211,14.8708183 23.5585937,15.5641707 23.5585937,16.3844873 C23.5585937,17.1266786 23.3242211,17.7907344 22.8554687,18.3766748 C22.3867164,18.9626153 21.7812537,19.3337053 21.0390625,19.4899561 C20.7656236,19.5290188 20.5605476,19.6559706 20.4238281,19.8708155 C20.2871087,20.0856603 20.2382811,20.3297985 20.2773437,20.6032373 C20.3945318,21.1110524 20.7070287,21.3649561 21.2148437,21.3649561 C21.2929691,21.3649561 21.3515623,21.345425 21.390625,21.3063623 C22.5625059,21.1110489 23.5292931,20.5446483 24.2910156,19.6071436 C25.0527382,18.6696389 25.4335937,17.5954309 25.4335937,16.3844873 L25.4335937,16.3844873 Z M24.203125,7.7712061 C23.9687488,7.6930807 23.7343762,7.70284623 23.5,7.80050297 C23.2656238,7.89815971 23.0996099,8.0739392 23.0019531,8.32784672 C22.9042964,8.58175424 22.9140619,8.82589242 23.03125,9.0602686 C23.1484381,9.29464477 23.3242176,9.4508932 23.5585938,9.5290186 C24.9648508,10.0368336 26.1074175,10.9254966 26.9863281,12.1950342 C27.8652388,13.4645718 28.3046875,14.8610422 28.3046875,16.3844873 C28.3046875,17.9079325 27.8652388,19.2946373 26.9863281,20.5446436 C26.1074175,21.7946498 24.9648508,22.6930784 23.5585938,23.2399561 C23.3242176,23.3180815 23.1484381,23.4743299 23.03125,23.7087061 C22.9140619,23.9430823 22.8945309,24.1774549 22.9726563,24.4118311 C23.128907,24.8415207 23.4218729,25.0563623 23.8515625,25.0563623 C23.9687506,25.0563623 24.0859369,25.0368313 24.203125,24.9977686 C26.000009,24.3337028 27.445307,23.2106671 28.5390625,21.628628 C29.632818,20.0465888 30.1796875,18.2985594 30.1796875,16.3844873 C30.1796875,14.4704153 29.632818,12.7223859 28.5390625,11.1403467 C27.445307,9.55830756 26.000009,8.43527192 24.203125,7.7712061 L24.203125,7.7712061 Z" /></svg>