<svg viewBox="0 0 32 32" enable-background="new 0 0 32 32" xmlns="http://www.w3.org/2000/svg"><title>close-filled</title><path d="M10.3031458,12.1843574 L14.1189924,16.0008152 L10.3031458,19.8172729 C9.70350893,20.4169757 9.71713683,21.0302989 10.3440299,21.6572609 C10.970923,22.2842229 11.5841788,22.2978523 12.1838157,21.6981496 L15.9996624,17.8816918 L19.815509,21.6981496 C20.4151459,22.2978523 21.0284017,22.2842229 21.6552948,21.6572609 C22.2821879,21.0302989 22.2958158,20.4169757 21.6961789,19.8172729 L17.8803323,16.0008152 L21.6961789,12.1843574 C22.2958158,11.5846546 22.2821879,10.9713314 21.6552948,10.3443694 C21.0284017,9.71740737 20.4151459,9.70377797 19.815509,10.3034808 L15.9996624,14.1199385 L12.1838157,10.3034808 C11.5841788,9.70377797 10.8635496,9.76935502 10.3440299,10.3443694 C9.82451024,10.9193837 9.70350893,11.5846546 10.3031458,12.1843574 Z M16,1 C11.8593543,1 8.3242334,2.4648291 5.39453125,5.39453125 C2.4648291,8.3242334 1,11.8593543 1,16 C1,20.1406457 2.4648291,23.6757666 5.39453125,26.6054688 C8.3242334,29.5351709 11.8593543,31 16,31 C20.1406457,31 23.6757666,29.5351709 26.6054688,26.6054688 C29.5351709,23.6757666 31,20.1406457 31,16 C31,11.8593543 29.5351709,8.3242334 26.6054688,5.39453125 C23.6757666,2.4648291 20.1406457,1 16,1 L16,1 Z" fill-rule="evenodd" /></svg>