<?xml version="1.0" encoding="utf-8"?>
<!-- Generator: Adobe Illustrator 18.0.0, SVG Export Plug-In . SVG Version: 6.00 Build 0)  -->
<!DOCTYPE svg PUBLIC "-//W3C//DTD SVG 1.1//EN" "http://www.w3.org/Graphics/SVG/1.1/DTD/svg11.dtd">
<svg version="1.1" id="Layer_1" xmlns="http://www.w3.org/2000/svg" xmlns:xlink="http://www.w3.org/1999/xlink" x="0px" y="0px"
	 viewBox="0 0 12 12" enable-background="new 0 0 12 12" xml:space="preserve">
<path d="M12,6.1C12,6.2,12,6.2,12,6.1v4.2c0,0.2-0.1,0.4-0.2,0.5s-0.3,0.2-0.5,0.2H0.8c-0.2,0-0.4-0.1-0.5-0.2S0,10.5,0,10.3V6.2
	C0,6.1,0,6.1,0,6c0-0.1,0-0.2,0-0.3l1.3-4.5c0-0.2,0.2-0.3,0.4-0.3h8.6c0.2,0,0.3,0.1,0.4,0.3L12,6C12,6,12,6.1,12,6.1z M11.3,6.2
	H8.2C8,6.7,7.7,7,7.4,7.3S6.5,7.7,6,7.7S5,7.6,4.7,7.3S4,6.7,3.8,6.2H0.8v4.1h10.5V6.2z M0.9,5.5h3.6c0,0.4,0.2,0.8,0.4,1.1
	S5.6,7,6,7s0.8-0.1,1.1-0.4s0.4-0.6,0.5-1.1h3.5L10,1.7h-8L0.9,5.5z"/>
</svg>
