<?xml version="1.0" encoding="utf-8"?>
<!-- Generator: Adobe Illustrator 18.0.0, SVG Export Plug-In . SVG Version: 6.00 Build 0)  -->
<!DOCTYPE svg PUBLIC "-//W3C//DTD SVG 1.1//EN" "http://www.w3.org/Graphics/SVG/1.1/DTD/svg11.dtd">
<svg version="1.1" id="Layer_1" xmlns="http://www.w3.org/2000/svg" xmlns:xlink="http://www.w3.org/1999/xlink" x="0px" y="0px"
	 viewBox="0 0 12 12" enable-background="new 0 0 12 12" xml:space="preserve">
<path d="M12,6.4c0,1-0.3,2-0.8,2.9S10,11,9.1,11.5c-0.1,0-0.1,0-0.2,0c-0.1,0-0.2-0.1-0.3-0.2c-0.1-0.1-0.1-0.2,0-0.3
	s0.1-0.2,0.2-0.2c0.7-0.4,1.2-0.9,1.6-1.5L10,9.1C9.9,9.1,9.8,9,9.8,8.9s0-0.2,0-0.3s0.1-0.1,0.2-0.2s0.2,0,0.3,0l0.4,0.2
	c0.3-0.6,0.4-1.2,0.5-1.9h-0.4c-0.1,0-0.2,0-0.3-0.1s-0.1-0.2-0.1-0.3s0-0.2,0.1-0.3S10.7,6,10.8,6h0.4c0-0.7-0.2-1.3-0.5-1.9
	l-0.4,0.2c-0.1,0-0.1,0.1-0.2,0.1c-0.1,0-0.2-0.1-0.3-0.2c0-0.1-0.1-0.2,0-0.3S9.9,3.7,10,3.7l0.4-0.2C10,2.9,9.5,2.5,9,2.1L8.7,2.4
	C8.7,2.6,8.6,2.6,8.4,2.6c-0.1,0-0.1,0-0.2,0C8.1,2.5,8.1,2.4,8.1,2.3s0-0.2,0-0.3l0.2-0.4C7.7,1.4,7,1.2,6.4,1.2v0.5
	c0,0.1,0,0.2-0.1,0.3S6.1,2,6,2S5.8,2,5.7,1.9S5.6,1.8,5.6,1.7V1.2C5,1.2,4.3,1.4,3.7,1.7l0.2,0.4C4,2.1,4,2.2,4,2.3
	S3.9,2.5,3.8,2.6c0,0-0.1,0-0.2,0c-0.1,0-0.2-0.1-0.3-0.2L3.1,2.1c-0.5,0.4-1,0.8-1.4,1.4L2,3.7c0.1,0,0.2,0.1,0.2,0.2s0,0.2,0,0.3
	C2.1,4.3,2,4.4,1.9,4.4c-0.1,0-0.1,0-0.2-0.1L1.3,4.1C1,4.7,0.8,5.4,0.8,6h0.4c0.1,0,0.2,0,0.3,0.1s0.1,0.2,0.1,0.3s0,0.2-0.1,0.3
	S1.3,6.8,1.2,6.8H0.8c0,0.7,0.2,1.3,0.5,1.9l0.4-0.2c0.1-0.1,0.2-0.1,0.3,0s0.2,0.1,0.2,0.2s0.1,0.2,0,0.3S2.1,9.1,2,9.1L1.7,9.4
	c0.4,0.6,0.9,1.1,1.5,1.5c0.1,0.1,0.2,0.1,0.2,0.2s0,0.2,0,0.3s-0.1,0.1-0.2,0.2s-0.2,0-0.3-0.1c-0.9-0.5-1.6-1.3-2.1-2.2
	S0,7.5,0,6.4c0-1.7,0.6-3.1,1.8-4.2S4.3,0.4,6,0.4S9.1,1,10.2,2.2S12,4.8,12,6.4z M6.7,6.4c0,0.2-0.1,0.4-0.2,0.5S6.2,7.2,6,7.2
	S5.6,7.1,5.5,6.9S5.3,6.6,5.3,6.4S5.3,6,5.5,5.9S5.8,5.7,6,5.7c0.1,0,0.2,0,0.4,0.1l2-1.2c0.1,0,0.2-0.1,0.3,0s0.2,0.1,0.2,0.2
	S9,4.9,8.9,5S8.9,5.2,8.8,5.2L6.7,6.4z"/>
</svg>
