<?xml version="1.0" encoding="utf-8"?>
<!-- Generator: Adobe Illustrator 18.0.0, SVG Export Plug-In . SVG Version: 6.00 Build 0)  -->
<!DOCTYPE svg PUBLIC "-//W3C//DTD SVG 1.1//EN" "http://www.w3.org/Graphics/SVG/1.1/DTD/svg11.dtd">
<svg version="1.1" id="Layer_1" xmlns="http://www.w3.org/2000/svg" xmlns:xlink="http://www.w3.org/1999/xlink" x="0px" y="0px"
	 viewBox="0 0 12 12" enable-background="new 0 0 12 12" xml:space="preserve">
<path d="M8.8,9.8c0,0,0.1,0,0.2,0.1S9.1,10,9.2,10s0.1,0.1,0.2,0.2s0.1,0.1,0.1,0.2v0.9c0,0.2-0.1,0.3-0.2,0.4S8.9,12,8.7,12H0.6
	c-0.2,0-0.3-0.1-0.4-0.2S0,11.5,0,11.4v-0.9c0-0.2,0.2-0.4,0.6-0.6L3,8.5C2.7,8.2,2.4,7.7,2.2,7.2S1.9,6.1,1.9,5.7V4.1
	c0-0.5,0.3-1,0.9-1.5S4,1.9,4.7,1.9S6,2.1,6.6,2.6s0.9,1,0.9,1.5v1.6c0,0.5-0.1,1-0.3,1.5s-0.5,1-0.9,1.3L8.8,9.8L8.8,9.8z
	 M8.6,10.6c-0.1,0-0.1-0.1-0.2-0.1c0,0-0.1,0-0.1,0L6,9.1C5.8,9,5.7,8.8,5.6,8.5s0.1-0.5,0.3-0.6c0.3-0.2,0.5-0.6,0.6-1
	S6.7,6,6.7,5.7V4.1c0-0.3-0.2-0.6-0.6-0.9S5.2,2.6,4.7,2.6s-1,0.2-1.4,0.5S2.6,3.8,2.6,4.1v1.6c0,0.4,0.1,0.8,0.2,1.2s0.4,0.8,0.7,1
	c0.2,0.2,0.3,0.4,0.3,0.6S3.7,9,3.4,9.1L1,10.5c0,0,0,0,0,0c-0.1,0-0.1,0.1-0.2,0.1v0.7h7.9V10.6z M11.5,8c0.1,0,0.2,0.1,0.3,0.2
	S12,8.4,12,8.6v0.9c0,0.2-0.1,0.3-0.2,0.4s-0.3,0.2-0.4,0.2h-1.2C10,9.8,9.9,9.5,9.7,9.4h1.5V8.7c-0.1,0-0.1-0.1-0.2-0.1
	c0,0-0.1,0-0.1,0L8.6,7.3C8.4,7.1,8.2,6.9,8.2,6.7S8.3,6.2,8.5,6C8.8,5.8,9,5.5,9.2,5s0.2-0.8,0.2-1.2V2.2c0-0.3-0.2-0.6-0.7-1
	S7.8,0.8,7.3,0.8c-0.5,0-1,0.2-1.4,0.5c-0.1,0-0.5-0.1-0.9-0.1C5.2,0.8,5.6,0.5,6,0.3S6.9,0,7.3,0C8,0,8.6,0.2,9.2,0.7
	s0.9,1,0.9,1.5v1.6c0,0.5-0.1,1-0.3,1.5S9.4,6.3,9,6.6l2.4,1.3L11.5,8z"/>
</svg>
