<?xml version="1.0" encoding="utf-8"?>
<!-- Generator: Adobe Illustrator 18.0.0, SVG Export Plug-In . SVG Version: 6.00 Build 0)  -->
<!DOCTYPE svg PUBLIC "-//W3C//DTD SVG 1.1//EN" "http://www.w3.org/Graphics/SVG/1.1/DTD/svg11.dtd">
<svg version="1.1" id="Layer_1" xmlns="http://www.w3.org/2000/svg" xmlns:xlink="http://www.w3.org/1999/xlink" x="0px" y="0px"
	 viewBox="0 0 12 12" enable-background="new 0 0 12 12" xml:space="preserve">
<path d="M11.9,8C12,8.1,12,8.1,12,8.2v1.5c0,0.1,0,0.2-0.1,0.3s-0.2,0.1-0.3,0.1h-1.5c-0.1,0-0.2,0-0.3-0.1S9.8,9.9,9.8,9.8V8.2
	c0-0.1,0-0.2,0.1-0.3s0.2-0.1,0.3-0.1h0.4v0c0-1-0.3-1.9-0.9-2.8S8.1,3.8,7.1,3.5v0.3c0,0.1,0,0.2-0.1,0.3S6.9,4.1,6.8,4.1H5.2
	C5.1,4.1,5.1,4.1,5,4S4.9,3.9,4.9,3.8V3.5c-1,0.3-1.8,0.8-2.4,1.6S1.5,6.8,1.5,7.9v0h0.4c0.1,0,0.2,0,0.3,0.1s0.1,0.2,0.1,0.3v1.5
	c0,0.1,0,0.2-0.1,0.3S2,10.1,1.9,10.1H0.4c-0.1,0-0.2,0-0.3-0.1S0,9.9,0,9.8V8.2C0,8.1,0,8.1,0.1,8s0.2-0.1,0.3-0.1h0.4v0
	c0-0.9,0.2-1.8,0.7-2.6s1.1-1.4,1.8-1.9H1.4C1.2,3.6,1,3.8,0.8,3.8c-0.2,0-0.4-0.1-0.5-0.2S0,3.2,0,3s0.1-0.4,0.2-0.5
	s0.3-0.2,0.5-0.2c0.3,0,0.5,0.1,0.7,0.4h3.5V2.2c0-0.1,0-0.2,0.1-0.3s0.2-0.1,0.3-0.1h1.5c0.1,0,0.2,0,0.3,0.1s0.1,0.2,0.1,0.3v0.4
	h3.5c0.2-0.2,0.4-0.4,0.7-0.4c0.2,0,0.4,0.1,0.5,0.2S12,2.8,12,3s-0.1,0.4-0.2,0.5s-0.3,0.2-0.5,0.2c-0.3,0-0.5-0.1-0.7-0.4H8.7
	c0.8,0.5,1.4,1.1,1.8,1.9s0.7,1.7,0.7,2.6v0h0.4C11.7,7.9,11.8,7.9,11.9,8z M1.5,8.6H0.8v0.8h0.8V8.6z M6.4,2.6H5.6v0.8h0.8V2.6z
	 M11.2,8.6h-0.8v0.8h0.8V8.6z"/>
</svg>
