<svg viewBox="0 0 32 32" enable-background="new 0 0 32 32" xmlns="http://www.w3.org/2000/svg"><title>settings-filled</title><path d="M29.125,13.1875 L26.7226562,12.6015625 C26.5664055,12.0546848 26.3320328,11.4882842 26.0195312,10.9023438 L27.3085938,8.734375 C28.0117223,7.64061953 28.0117223,6.76172207 27.3085938,6.09765625 L26.0195312,4.75 C25.5898416,4.39843574 25.1308618,4.23242178 24.6425781,4.25195312 C24.1542944,4.27148447 23.6953146,4.41796738 23.265625,4.69140625 L21.15625,6.0390625 C20.6093723,5.72656094 20.0429717,5.47265723 19.4570312,5.27734375 L18.9296875,2.875 C18.8515621,2.36718496 18.626955,1.92773623 18.2558594,1.55664062 C17.8847638,1.18554502 17.445315,1 16.9375,1 L15.0625,1 C14.0859326,1 13.4609389,1.62499375 13.1875,2.875 L12.6015625,5.27734375 C11.9765594,5.47265723 11.3710967,5.72656094 10.7851562,6.0390625 L8.6171875,4.69140625 C8.18749785,4.41796738 7.71875254,4.27148447 7.2109375,4.25195312 C6.70312246,4.23242178 6.2539082,4.39843574 5.86328125,4.75 L4.57421875,6.09765625 C3.87109023,6.76172207 3.87109023,7.64061953 4.57421875,8.734375 L5.921875,11.0195312 C5.64843613,11.566409 5.43359453,12.0937475 5.27734375,12.6015625 L2.875,13.1875 C2.36718496,13.2656254 1.92773623,13.4902325 1.55664062,13.8613281 C1.18554502,14.2324237 1,14.6523414 1,15.1210938 L1,16.9960938 C1,17.5039088 1.18554502,17.9140609 1.55664062,18.2265625 C1.92773623,18.5390641 2.36718496,18.7539057 2.875,18.8710938 L5.3359375,19.515625 C5.49218828,19.9843773 5.68749883,20.4726537 5.921875,20.9804688 L4.57421875,23.265625 C3.87109023,24.3593805 3.87109023,25.2382779 4.57421875,25.9023438 L5.86328125,27.25 C6.2539082,27.6015643 6.70312246,27.7773438 7.2109375,27.7773438 C7.71875254,27.7773438 8.18749785,27.6210953 8.6171875,27.3085938 L10.7851562,25.9609375 C11.3710967,26.2734391 11.9765594,26.5273428 12.6015625,26.7226562 L13.1875,29.125 C13.3046881,29.632815 13.5292952,30.0722638 13.8613281,30.4433594 C14.193361,30.814455 14.5937477,31 15.0625,31 L16.9375,31 C17.445315,31 17.8847638,30.814455 18.2558594,30.4433594 C18.626955,30.0722638 18.8515621,29.632815 18.9296875,29.125 L19.4570312,26.7226562 C20.0429717,26.5273428 20.6093723,26.2734391 21.15625,25.9609375 L23.265625,27.3085938 C23.6953146,27.6210953 24.1542944,27.7773438 24.6425781,27.7773438 C25.1308618,27.7773438 25.5898416,27.6015643 26.0195312,27.25 L27.3085938,25.9023438 C28.0117223,25.2382779 28.0117223,24.3593805 27.3085938,23.265625 L26.0195312,21.0976562 C26.2929701,20.5507785 26.5078117,20.02344 26.6640625,19.515625 L29.125,18.8710938 C29.632815,18.7539057 30.0722638,18.5390641 30.4433594,18.2265625 C30.814455,17.9140609 31,17.5039088 31,16.9960938 L31,15.1210938 C31,14.6523414 30.814455,14.2324237 30.4433594,13.8613281 C30.0722638,13.4902325 29.632815,13.2656254 29.125,13.1875 L29.125,13.1875 Z M16.0043616,11.2124352 C14.6744759,11.2124352 13.54409,11.6778883 12.6131699,12.6088083 C11.6822499,13.5397283 11.2167969,14.6701142 11.2167969,16 C11.2167969,17.3298858 11.6822499,18.4602717 12.6131699,19.3911917 C13.54409,20.3221117 14.6744759,20.7875648 16.0043616,20.7875648 C17.3342474,20.7875648 18.472945,20.3221117 19.4204886,19.3911917 C20.3680322,18.4602717 20.8417969,17.3298858 20.8417969,16 C20.8417969,14.6701142 20.3680322,13.5397283 19.4204886,12.6088083 C18.472945,11.6778883 17.3342474,11.2124352 16.0043616,11.2124352 L16.0043616,11.2124352 Z" fill-rule="evenodd" /></svg>