<?xml version="1.0" encoding="utf-8"?>
<!-- Generator: Adobe Illustrator 18.0.0, SVG Export Plug-In . SVG Version: 6.00 Build 0)  -->
<!DOCTYPE svg PUBLIC "-//W3C//DTD SVG 1.1//EN" "http://www.w3.org/Graphics/SVG/1.1/DTD/svg11.dtd">
<svg version="1.1" id="Layer_1" xmlns="http://www.w3.org/2000/svg" xmlns:xlink="http://www.w3.org/1999/xlink" x="0px" y="0px"
	 viewBox="0 0 12 12" enable-background="new 0 0 12 12" xml:space="preserve">
<path d="M11.7,2.4C11.9,2.6,12,2.9,12,3.2v5.6c0,0.3-0.1,0.6-0.3,0.8s-0.5,0.3-0.8,0.3H1.1c-0.3,0-0.6-0.1-0.8-0.3S0,9.1,0,8.8V3.2
	c0-0.3,0.1-0.6,0.3-0.8s0.5-0.3,0.8-0.3h9.8C11.2,2.1,11.5,2.2,11.7,2.4z M0.9,2.9C0.8,3,0.8,3.1,0.8,3.2v0.8h10.5V3.2
	c0-0.1,0-0.2-0.1-0.3S11,2.8,10.9,2.8H1.1C1,2.8,0.9,2.8,0.9,2.9z M11.1,9.1c0.1-0.1,0.1-0.2,0.1-0.3V5.4H0.8v3.4
	c0,0.1,0,0.2,0.1,0.3S1,9.2,1.1,9.2h9.8C11,9.2,11.1,9.2,11.1,9.1z"/>
</svg>
