<?xml version="1.0" encoding="utf-8"?>
<!-- Generator: Adobe Illustrator 18.0.0, SVG Export Plug-In . SVG Version: 6.00 Build 0)  -->
<!DOCTYPE svg PUBLIC "-//W3C//DTD SVG 1.1//EN" "http://www.w3.org/Graphics/SVG/1.1/DTD/svg11.dtd">
<svg version="1.1" id="Layer_1" xmlns="http://www.w3.org/2000/svg" xmlns:xlink="http://www.w3.org/1999/xlink" x="0px" y="0px"
	 viewBox="0 0 12 12" enable-background="new 0 0 12 12" xml:space="preserve">
<path d="M11.4,9.5c0.1,0,0.2,0.1,0.4,0.3s0.2,0.3,0.2,0.5v1c0,0.2-0.1,0.4-0.2,0.5S11.5,12,11.2,12H0.8c-0.2,0-0.4-0.1-0.5-0.2
	S0,11.5,0,11.3v-1c0-0.2,0.1-0.4,0.2-0.5s0.2-0.2,0.3-0.3s0.1-0.1,0.2-0.1L4,7.9c-0.1,0-0.4-0.1-0.7-0.2s-0.7-0.1-1-0.2
	S1.8,7.3,1.7,7.2l0.2-0.3C2,6.7,2.2,6.4,2.3,6s0.2-0.8,0.3-1.2c0-0.1,0-0.4,0.1-0.9S2.8,3,2.9,2.6c0.1-0.8,0.4-1.4,1-1.9S5.2,0,6,0
	s1.5,0.2,2.1,0.7s0.9,1.1,1,1.9c0,0.4,0.1,0.8,0.2,1.3s0.1,0.8,0.1,0.9c0.1,0.9,0.4,1.7,0.8,2.4c0,0.1-0.2,0.2-0.5,0.3
	s-0.6,0.1-1,0.2S8.1,7.8,8,7.9l3.3,1.5L11.4,9.5z M11.2,11.2v-1c0-0.1-0.1-0.1-0.3-0.2c0,0,0,0-0.1,0L7.7,8.5
	C7.4,8.4,7.2,8.2,7.2,7.9s0.1-0.5,0.4-0.7C7.8,7.1,8.2,7,8.8,6.9c0.2,0,0.3-0.1,0.5-0.1C8.9,6.2,8.8,5.5,8.7,4.9
	c0-0.1,0-0.3-0.1-0.6C8.5,3.7,8.5,3.2,8.4,2.7C8.3,2.2,8.1,1.7,7.6,1.3S6.6,0.8,6,0.8S4.8,0.9,4.4,1.3S3.7,2.2,3.6,2.7
	c-0.1,0.5-0.1,1-0.2,1.5c0,0.3-0.1,0.5-0.1,0.6C3.2,5.5,3.1,6.2,2.8,6.8c0.1,0,0.3,0.1,0.5,0.1C3.8,7,4.2,7.1,4.4,7.2
	c0.3,0.1,0.4,0.4,0.4,0.7S4.6,8.4,4.3,8.5l-3.3,1.5c0,0-0.1,0-0.1,0c-0.2,0.1-0.3,0.1-0.3,0.2v1H11.2z"/>
</svg>
