<?xml version="1.0" encoding="utf-8"?>
<!-- Generator: Adobe Illustrator 18.0.0, SVG Export Plug-In . SVG Version: 6.00 Build 0)  -->
<!DOCTYPE svg PUBLIC "-//W3C//DTD SVG 1.1//EN" "http://www.w3.org/Graphics/SVG/1.1/DTD/svg11.dtd">
<svg version="1.1" id="Layer_1" xmlns="http://www.w3.org/2000/svg" xmlns:xlink="http://www.w3.org/1999/xlink" x="0px" y="0px"
	 viewBox="0 0 12 12" enable-background="new 0 0 12 12" xml:space="preserve">
<path d="M11.9,3L9.9,4.6l1.7,1.3c0.1,0.1,0.1,0.2,0.1,0.3s-0.1,0.2-0.2,0.3l-1.5,1c0,0,0,0.1,0,0.1v1.8c0,0.1-0.1,0.2-0.2,0.3
	l-3.7,2.1c-0.1,0-0.1,0-0.2,0s-0.1,0-0.2,0L2,9.6C1.9,9.5,1.9,9.4,1.9,9.3V7.8c0-0.1,0-0.2,0.1-0.3l-1.5-1C0.3,6.4,0.3,6.3,0.3,6.2
	s0-0.2,0.2-0.3l1.7-1.3L0.1,3C0,2.9,0,2.8,0,2.6s0.1-0.2,0.2-0.3l3.3-2.1c0.2-0.1,0.3-0.1,0.4,0L6,2l2-1.7c0.1-0.1,0.3-0.1,0.4,0
	l3.3,2.1C11.9,2.4,12,2.5,12,2.6S12,2.9,11.9,3z M2.7,4.1l2.7-1.7L3.7,1L1,2.7L2.7,4.1z M1.3,6.1l2.6,1.7l1.5-1.1L2.7,5L1.3,6.1z
	 M2.6,9.1l3,1.7V7.5L4.1,8.6c-0.1,0.1-0.3,0.1-0.4,0L2.6,7.9V9.1z M6,2.9L3.4,4.6L6,6.2l2.6-1.7L6,2.9z M9.4,8l-1,0.7
	c-0.1,0-0.1,0.1-0.2,0.1S8,8.7,7.9,8.6L6.4,7.4v3.4l3-1.7V8z M11,2.7L8.3,1L6.6,2.4l2.7,1.7L11,2.7z M9.3,5L6.7,6.7l1.5,1.1l2.6-1.7
	L9.3,5z"/>
</svg>
