<svg viewBox="0 0 32 32" enable-background="new 0 0 32 32" xmlns="http://www.w3.org/2000/svg"><title>heart-filled</title><path d="M9.4375,2 C7.05467559,2 5.10157012,2.78124219 3.578125,4.34375 C1.85936641,6.0234459 1,8.07420664 1,10.4960938 C1,12.9179809 1.85936641,14.9882727 3.578125,16.7070312 L14.0664062,28.25 C14.613284,28.7968777 15.2675743,29.0703125 16.0292969,29.0703125 C16.7910194,29.0703125 17.4453098,28.7968777 17.9921875,28.25 C24.9062846,20.7890252 28.4023434,17.0195316 28.4804688,16.9414062 C30.1992273,15.2226477 31.0585938,13.1523559 31.0585938,10.7304688 C31.0585938,8.30858164 30.1992273,6.23828984 28.4804688,4.51953125 C26.8007729,2.83983535 24.8281363,2 22.5625,2 C20.6093652,2 18.4218871,3.21092539 16,5.6328125 C13.5781129,3.21092539 11.3906348,2 9.4375,2 L9.4375,2 Z" /></svg>