<?xml version="1.0" encoding="utf-8"?>
<!-- Generator: Adobe Illustrator 18.0.0, SVG Export Plug-In . SVG Version: 6.00 Build 0)  -->
<!DOCTYPE svg PUBLIC "-//W3C//DTD SVG 1.1//EN" "http://www.w3.org/Graphics/SVG/1.1/DTD/svg11.dtd">
<svg version="1.1" id="Layer_1" xmlns="http://www.w3.org/2000/svg" xmlns:xlink="http://www.w3.org/1999/xlink" x="0px" y="0px"
	 viewBox="0 0 12 12" enable-background="new 0 0 12 12" xml:space="preserve">
<path d="M12,6c0,0.1,0,0.1-0.1,0.2l-0.1,0.1l-1.5,1.4c-0.1,0.1-0.3,0.1-0.4,0L9.8,7.6c-0.1-0.1-0.1-0.3,0-0.4l0.9-0.8H6.4v4.4
	l0.8-0.9c0.1-0.2,0.3-0.2,0.4,0l0.1,0.1c0.1,0.1,0.1,0.3,0,0.4l-1.4,1.5l-0.1,0.1C6.1,12,6.1,12,6,12s-0.1,0-0.2-0.1l-0.1-0.1
	l-1.4-1.5c-0.1-0.1-0.1-0.3,0-0.4l0.1-0.1c0.1-0.1,0.3-0.1,0.4,0l0.8,0.9V6.4H1.2l0.9,0.8c0.2,0.1,0.2,0.3,0,0.4L2.1,7.7
	C2,7.8,1.8,7.8,1.7,7.7L0.2,6.3L0.1,6.2C0,6.1,0,6.1,0,6s0-0.1,0.1-0.2h0c0-0.1,0.1-0.1,0.1-0.2l1.5-1.3c0.1-0.1,0.3-0.1,0.4,0
	l0.1,0.1c0.1,0.1,0.1,0.2,0,0.4L1.2,5.6h4.4V1.2L4.9,2.1c-0.1,0.2-0.3,0.2-0.4,0L4.4,2.1C4.2,2,4.2,1.8,4.4,1.7l1.4-1.5l0.1-0.1
	C5.9,0,5.9,0,6,0s0.1,0,0.2,0.1v0c0.1,0,0.1,0.1,0.2,0.1l1.3,1.5c0.1,0.1,0.1,0.3,0,0.4L7.6,2.2c-0.1,0.1-0.2,0.1-0.4,0L6.4,1.2v4.4
	h4.4L9.9,4.8c-0.2-0.1-0.2-0.3,0-0.4l0.1-0.1c0.1-0.1,0.3-0.1,0.4,0l1.5,1.4l0.1,0.1C12,5.9,12,5.9,12,6z"/>
</svg>
