<?xml version="1.0" encoding="utf-8"?>
<!-- Generator: Adobe Illustrator 18.0.0, SVG Export Plug-In . SVG Version: 6.00 Build 0)  -->
<!DOCTYPE svg PUBLIC "-//W3C//DTD SVG 1.1//EN" "http://www.w3.org/Graphics/SVG/1.1/DTD/svg11.dtd">
<svg version="1.1" id="Layer_1" xmlns="http://www.w3.org/2000/svg" xmlns:xlink="http://www.w3.org/1999/xlink" x="0px" y="0px"
	 viewBox="0 0 12 12" enable-background="new 0 0 12 12" xml:space="preserve">
<path d="M0.7,11.2H9V12H0.7c-0.2,0-0.4-0.1-0.5-0.2S0,11.5,0,11.2v-1.1C0,10,0.1,9.9,0.2,9.7s0.2-0.2,0.3-0.3s0.1-0.1,0.2-0.1
	l3.3-1.5C3.6,7.4,3.2,6.9,3,6.3S2.6,5,2.6,4.5V2.6C2.6,2,3,1.4,3.7,0.8S5.2,0,6,0s1.6,0.3,2.3,0.8S9.4,2,9.4,2.6v1.9
	C9.4,5,9.3,5.6,9,6.3S8.5,7.5,8,7.8l1,0.5L8.8,9L7.7,8.5C7.4,8.4,7.3,8.2,7.2,7.9s0.1-0.5,0.3-0.7C7.9,6.9,8.2,6.5,8.3,6
	s0.3-1,0.3-1.5V2.6c0-0.4-0.3-0.8-0.8-1.2S6.6,0.8,6,0.8C5.4,0.8,4.8,1,4.2,1.4S3.4,2.2,3.4,2.6v1.9c0,0.4,0.1,0.9,0.3,1.5
	s0.5,1,0.8,1.3c0.2,0.2,0.3,0.4,0.3,0.7S4.6,8.4,4.4,8.5l-3.3,1.5c-0.2,0.1-0.3,0.2-0.3,0.4V11.2z M11.9,9.9C12,9.9,12,10,12,10.1
	s0,0.2-0.1,0.3s-0.2,0.1-0.3,0.1h-1.1v1.1c0,0.1,0,0.2-0.1,0.3S10.2,12,10.1,12s-0.2,0-0.3-0.1s-0.1-0.2-0.1-0.3v-1.1H8.6
	c-0.1,0-0.2,0-0.3-0.1s-0.1-0.2-0.1-0.3s0-0.2,0.1-0.3s0.2-0.1,0.3-0.1h1.1V8.6c0-0.1,0-0.2,0.1-0.3s0.2-0.1,0.3-0.1s0.2,0,0.3,0.1
	s0.1,0.2,0.1,0.3v1.1h1.1C11.7,9.8,11.8,9.8,11.9,9.9z"/>
</svg>
