<svg viewBox="0 0 32 32" enable-background="new 0 0 32 32" xmlns="http://www.w3.org/2000/svg"><title>volume-1-filled</title><path d="M20.3769531,3.11300297 C20.0449202,2.93722084 19.7226578,2.96651742 19.4101562,3.2008936 L9.9765625,10.5837061 L6.87109375,10.5837061 C6.08983984,10.5837061 5.41601846,10.8278443 4.84960938,11.316128 C4.28320029,11.8044117 4,12.4001088 4,13.1032373 L4,19.3141748 C4,19.9782407 4.28320029,20.5641723 4.84960938,21.0719873 C5.41601846,21.5798024 6.1093709,21.8337061 6.9296875,21.8337061 L10.0351562,21.8337061 L19.4101562,29.2165186 C19.566407,29.3337067 19.7421865,29.3922998 19.9375,29.3922998 C20.0937508,29.3922998 20.2304682,29.3532377 20.3476562,29.2751123 C20.6992205,29.1188616 20.875,28.8454268 20.875,28.4547998 L20.875,3.96261235 C20.875,3.57198539 20.708986,3.2887851 20.3769531,3.11300297 L20.3769531,3.11300297 Z M24.3320313,11.4040186 C24.0585924,11.3649559 23.8242197,11.4137835 23.6289063,11.550503 C23.4335928,11.6872224 23.3066409,11.8922985 23.2480469,12.1657373 C23.1894528,12.4391762 23.2382805,12.6735489 23.3945313,12.8688623 C23.550782,13.0641758 23.7656236,13.1813621 24.0390625,13.2204248 C24.7812537,13.3766756 25.3769509,13.7380001 25.8261719,14.3044092 C26.2753929,14.8708183 26.5,15.5641707 26.5,16.3844873 C26.5,17.1266786 26.2656273,17.7907344 25.796875,18.3766748 C25.3281227,18.9626153 24.72266,19.3337053 23.9804688,19.4899561 C23.7460926,19.5290188 23.550782,19.6559706 23.3945313,19.8708155 C23.2382805,20.0856603 23.1992184,20.3297985 23.2773438,20.6032373 C23.3554691,21.1110524 23.648435,21.3649561 24.15625,21.3649561 C24.2343754,21.3649561 24.2929686,21.345425 24.3320313,21.3063623 C25.5039121,21.1110489 26.4706993,20.5446483 27.2324219,19.6071436 C27.9941444,18.6696389 28.375,17.5954309 28.375,16.3844873 C28.375,15.1344811 27.9941444,14.040742 27.2324219,13.1032373 C26.4706993,12.1657327 25.5039121,11.5993321 24.3320313,11.4040186 L24.3320313,11.4040186 Z" /></svg>