<svg viewBox="0 0 32 32" enable-background="new 0 0 32 32" xmlns="http://www.w3.org/2000/svg"><title>volume-off-filled</title><path d="M17.3769531,3.11300297 C17.0449202,2.93722084 16.7226578,2.96651742 16.4101562,3.2008936 L7.03515625,10.5837061 L3.87109375,10.5837061 C3.08983984,10.5837061 2.41601846,10.8278443 1.84960938,11.316128 C1.28320029,11.8044117 1,12.4001088 1,13.1032373 L1.05859375,19.3141748 C1.05859375,19.9782407 1.34179404,20.5641723 1.90820312,21.0719873 C2.47461221,21.5798024 3.14843359,21.8337061 3.9296875,21.8337061 L7.09375,21.8337061 L16.4101562,29.2165186 C16.566407,29.3337067 16.7421865,29.3922998 16.9375,29.3922998 C17.0937508,29.3922998 17.2499992,29.3532377 17.40625,29.2751123 C17.7187516,29.1188616 17.875,28.8454268 17.875,28.4547998 L17.875,3.96261235 C17.875,3.57198539 17.708986,3.2887851 17.3769531,3.11300297 L17.3769531,3.11300297 Z M26.7226563,16.2087061 L29.7695313,13.1032373 C30.2382836,12.6735477 30.2480491,12.234099 29.7988281,11.784878 C29.3496071,11.335657 28.9101584,11.3454225 28.4804688,11.8141748 L25.4335938,14.8610498 L22.328125,11.8141748 C21.8984354,11.3454225 21.4589866,11.335657 21.0097656,11.784878 C20.5605446,12.234099 20.5703102,12.6735477 21.0390625,13.1032373 L24.0859375,16.2087061 L21.0390625,19.3141748 C20.6093729,19.7438645 20.6191384,20.1833132 21.0683594,20.6325342 C21.5175804,21.0817552 21.9570291,21.0719897 22.3867188,20.6032373 L25.4335938,17.5563623 L28.421875,20.6032373 C28.8515646,21.0719897 29.2910134,21.0817552 29.7402344,20.6325342 C30.1894554,20.1833132 30.1992209,19.7438645 29.7695313,19.3141748 L26.7226563,16.2087061 Z" /></svg>