<?xml version="1.0" encoding="utf-8"?>
<!-- Generator: Adobe Illustrator 18.0.0, SVG Export Plug-In . SVG Version: 6.00 Build 0)  -->
<!DOCTYPE svg PUBLIC "-//W3C//DTD SVG 1.1//EN" "http://www.w3.org/Graphics/SVG/1.1/DTD/svg11.dtd">
<svg version="1.1" id="Layer_1" xmlns="http://www.w3.org/2000/svg" xmlns:xlink="http://www.w3.org/1999/xlink" x="0px" y="0px"
	 viewBox="0 0 12 12" enable-background="new 0 0 12 12" xml:space="preserve">
<path d="M11.8,2.7C11.9,2.8,12,3,12,3.2v6.8c0,0.2-0.1,0.4-0.2,0.5s-0.3,0.2-0.5,0.2H0.7c-0.2,0-0.4-0.1-0.5-0.2S0,10.1,0,9.9V4.7
	V3.9V2.1c0-0.2,0.1-0.4,0.2-0.5s0.3-0.2,0.5-0.2h3.8l1.1,1.1h5.6C11.5,2.4,11.6,2.5,11.8,2.7z M0.7,3.9h10.5V3.2H5.3L5.1,3L4.1,2.1
	H0.7V3.9z M11.2,9.9V4.7H0.7v5.2H11.2z"/>
</svg>
