<?xml version="1.0" encoding="utf-8"?>
<!-- Generator: Adobe Illustrator 18.0.0, SVG Export Plug-In . SVG Version: 6.00 Build 0)  -->
<!DOCTYPE svg PUBLIC "-//W3C//DTD SVG 1.1//EN" "http://www.w3.org/Graphics/SVG/1.1/DTD/svg11.dtd">
<svg version="1.1" id="Layer_1" xmlns="http://www.w3.org/2000/svg" xmlns:xlink="http://www.w3.org/1999/xlink" x="0px" y="0px"
	 viewBox="0 0 12 12" enable-background="new 0 0 12 12" xml:space="preserve">
<path d="M6.9,0.2h1c0.2,0,0.4,0.1,0.5,0.2s0.2,0.3,0.2,0.5c0,0,0,0,0,0l0,1.1c0,0.2-0.1,0.4-0.2,0.5S8.1,2.8,7.8,2.8H7.1v0.8h1.1
	c0.2,0,0.5,0.1,0.6,0.3S9,4.3,9,4.5L8.7,5.6c0,0.2-0.1,0.3-0.3,0.4S8.2,6.2,8,6.2H7.1v4.9c0,0.2-0.1,0.4-0.2,0.5s-0.3,0.2-0.5,0.2
	H5.2c-0.2,0-0.4-0.1-0.5-0.2s-0.2-0.3-0.2-0.5V6.2H3.7C3.5,6.2,3.3,6.1,3.2,6S3,5.6,3,5.4V4.3c0-0.2,0.1-0.4,0.2-0.5
	s0.3-0.2,0.5-0.2h0.7v-1c0-0.9,0.4-1.6,1.1-2C5.9,0.3,6.3,0.2,6.9,0.2C6.8,0.2,6.9,0.2,6.9,0.2z M6.4,1C6.3,1,6.1,1.1,5.9,1.2
	S5.6,1.4,5.4,1.7S5.2,2.2,5.2,2.6v1.8H3.7v1.1h1.5v5.6h1.1V5.4H8l0.3-1.1H6.4V2.5V2.4c0-0.1,0.1-0.2,0.2-0.2s0.2-0.1,0.4-0.1h1
	l0-1.1h-1H6.8C6.7,0.9,6.6,1,6.4,1z"/>
</svg>
