<?xml version="1.0" encoding="utf-8"?>
<!-- Generator: Adobe Illustrator 18.0.0, SVG Export Plug-In . SVG Version: 6.00 Build 0)  -->
<!DOCTYPE svg PUBLIC "-//W3C//DTD SVG 1.1//EN" "http://www.w3.org/Graphics/SVG/1.1/DTD/svg11.dtd">
<svg version="1.1" id="Layer_1" xmlns="http://www.w3.org/2000/svg" xmlns:xlink="http://www.w3.org/1999/xlink" x="0px" y="0px"
	 viewBox="0 0 12 12" enable-background="new 0 0 12 12" xml:space="preserve">
<path d="M6,12c-1.1,0-2.1-0.4-2.9-1.2S1.9,9,1.9,7.9c0-0.6,0.2-1.3,0.5-2.2s0.8-1.8,1.3-2.6S4.7,1.6,5,1.2s0.5-0.7,0.7-1
	C5.8,0.1,5.9,0,6,0s0.2,0,0.3,0.1c0.2,0.2,0.4,0.6,0.7,1s0.7,1,1.2,1.9c0.5,0.9,1,1.7,1.4,2.6c0.4,0.9,0.5,1.6,0.5,2.2
	c0,1.1-0.4,2.1-1.2,2.9S7.1,12,6,12z M6,1C5.5,1.7,5.1,2.3,4.7,3C4.3,3.6,3.8,4.5,3.3,5.5S2.6,7.3,2.6,7.9c0,0.9,0.3,1.7,1,2.3
	s1.4,1,2.4,1c0.9,0,1.7-0.3,2.4-1s1-1.4,1-2.3c0-0.6-0.2-1.4-0.7-2.4S7.7,3.6,7.3,2.9S6.4,1.6,6,1z"/>
</svg>
