<?xml version="1.0" encoding="utf-8"?>
<!-- Generator: Adobe Illustrator 18.0.0, SVG Export Plug-In . SVG Version: 6.00 Build 0)  -->
<!DOCTYPE svg PUBLIC "-//W3C//DTD SVG 1.1//EN" "http://www.w3.org/Graphics/SVG/1.1/DTD/svg11.dtd">
<svg version="1.1" id="Layer_1" xmlns="http://www.w3.org/2000/svg" xmlns:xlink="http://www.w3.org/1999/xlink" x="0px" y="0px"
	 viewBox="0 0 12 12" enable-background="new 0 0 12 12" xml:space="preserve">
<path d="M9.7,1.4c0.2,0.1,0.5,0.3,0.9,0.5s0.6,0.4,0.8,0.6c0.2,0.2,0.3,0.4,0.4,0.6S12,3.6,12,3.8c0,0.2-0.1,0.4-0.2,0.6
	s-0.2,0.3-0.4,0.5s-0.4,0.2-0.5,0.3s-0.4,0.2-0.7,0.3S9.6,5.6,9.5,5.7S9,5.8,8.7,5.9C8.4,5.9,8.2,6,8,6C7.8,6.1,7.4,6.3,7,6.8l0,0.1
	l0,0l0,0L6.8,7C6.3,7.4,6.1,7.8,6,8c0,0.1-0.1,0.4-0.1,0.7C5.8,9,5.7,9.3,5.7,9.5s-0.1,0.4-0.2,0.7s-0.2,0.5-0.3,0.7
	S5,11.2,4.9,11.4s-0.3,0.3-0.5,0.4S4,12,3.8,12c0,0-0.1,0-0.1,0c-0.2,0-0.5-0.1-0.7-0.2s-0.4-0.3-0.6-0.5s-0.4-0.4-0.6-0.8
	S1.5,9.9,1.4,9.7s-0.3-0.6-0.5-1C0.7,8.3,0.6,8,0.5,7.9C0.1,7-0.1,6.3,0,5.6s0.5-1.4,1.1-2l0.7-0.7l0.6-0.6l0.4-0.4l0.3-0.3l0.4-0.4
	C4.4,0.4,5.2,0,6,0c0.6,0,1.2,0.2,1.9,0.5C8,0.6,8.3,0.7,8.7,0.9C9.2,1.1,9.5,1.3,9.7,1.4z M11,3.2c-0.1-0.2-0.4-0.4-0.7-0.6
	S9.8,2.2,9.5,2.1S8.9,1.8,8.5,1.6S7.7,1.2,7.5,1.1C7,0.9,6.5,0.7,6,0.7C5.4,0.7,4.7,1,4.1,1.7C4,1.7,3.9,1.9,3.7,2S3.5,2.3,3.4,2.4
	c-0.3,0.3-0.7,0.7-1,1C2,3.8,1.7,4,1.7,4.1c-0.5,0.5-0.8,1-0.9,1.5s0,1.1,0.4,1.9C1.2,7.7,1.4,8,1.6,8.4s0.4,0.8,0.5,1
	s0.3,0.5,0.5,0.8S3,10.9,3.1,11s0.4,0.2,0.6,0.2c0,0,0,0,0,0c0.2,0,0.4-0.1,0.5-0.2s0.3-0.4,0.4-0.7s0.2-0.6,0.3-0.8
	C4.9,9.3,5,9,5.1,8.6S5.2,8,5.3,7.8C5.4,7.4,5.7,7,6.2,6.4c0,0,0,0,0.1-0.1s0,0,0.1,0c0,0,0,0,0-0.1s0,0,0-0.1
	c0.5-0.5,1-0.8,1.4-0.9c0.1,0,0.4-0.1,0.8-0.2s0.7-0.2,0.9-0.2c0.2-0.1,0.5-0.1,0.8-0.3s0.5-0.2,0.7-0.4s0.2-0.3,0.2-0.5
	C11.2,3.6,11.2,3.4,11,3.2z M4.2,6.7c0.2,0.2,0.2,0.3,0,0.5C4,7.3,3.8,7.3,3.7,7.2L3.4,6.9L3.1,7.2c-0.2,0.2-0.3,0.2-0.5,0
	s-0.2-0.3,0-0.5l0.3-0.3L2.6,6.1c-0.2-0.2-0.2-0.3,0-0.5s0.3-0.2,0.5,0l0.3,0.3l0.3-0.3c0.2-0.2,0.3-0.2,0.5,0
	c0.2,0.2,0.2,0.3,0,0.5L3.9,6.4L4.2,6.7z M5.6,2.2h0.8V3H5.6V2.2z M5.6,3.4h0.8v0.8H5.6V3.4z M6.7,2.2h0.8V3H6.7V2.2z M6.7,3.4h0.8
	v0.8H6.7V3.4z"/>
</svg>
