<svg viewBox="0 0 32 32" enable-background="new 0 0 32 32" xmlns="http://www.w3.org/2000/svg"><title>users-filled</title><path d="M22.8554688,25.4921875 L16.9375,22.2109375 C17.9140674,21.4296836 18.6269509,20.3652411 19.0761719,19.0175781 C19.5253929,17.6699151 19.75,16.3906311 19.75,15.1796875 L19.75,11.1953125 C19.75,9.86718086 19.0175854,8.61719336 17.5527344,7.4453125 C16.0878833,6.27343164 14.4863368,5.6875 12.7480469,5.6875 C11.0097569,5.6875 9.39844492,6.28319717 7.9140625,7.47460938 C6.42968008,8.66602158 5.6875,9.90624355 5.6875,11.1953125 L5.6875,15.1796875 C5.6875,16.273443 5.93163818,17.5136649 6.41992188,18.9003906 C6.90820557,20.2871163 7.64062012,21.3906209 8.6171875,22.2109375 L2.58203125,25.4921875 C1.52733848,25.9609398 1,26.4882783 1,27.0742188 L1,29.4179688 C1,29.8476584 1.15624844,30.2187484 1.46875,30.53125 C1.78125156,30.8437516 2.1523416,31 2.58203125,31 L22.8554688,31 C23.2851584,31 23.6562484,30.8437516 23.96875,30.53125 C24.2812516,30.2187484 24.4375,29.8476584 24.4375,29.4179688 L24.4375,27.0742188 C24.4375,26.8789053 24.3789068,26.6933603 24.2617188,26.5175781 C24.1445307,26.341796 24.0175788,26.1953131 23.8808594,26.078125 C23.7441399,25.9609369 23.597657,25.8535161 23.4414062,25.7558594 C23.2851555,25.6582026 23.1484381,25.5898439 23.03125,25.5507812 L22.8554688,25.4921875 Z M13.3948678,3.7092361 C14.0832935,2.93546659 14.9418974,2.29606568 15.9707031,1.79101562 C17.0449272,1.26366924 18.1289008,1 19.2226562,1 C20.8334443,1 22.3294078,1.50021062 23.7105842,2.50064562 C23.8366584,2.59196562 23.9617761,2.68745354 24.0859375,2.78710938 C25.5703199,3.97852158 26.3125,5.23827461 26.3125,6.56640625 L26.3125,10.4921875 C26.3125,11.7031311 26.0781273,12.9824151 25.609375,14.3300781 C25.1406227,15.6777411 24.4179736,16.7421836 23.4414062,17.5234375 L29.4179687,20.8046875 L29.828125,20.9804688 C30.0625012,21.0976568 30.3164049,21.2929674 30.5898437,21.5664062 C30.8632826,21.8398451 31,22.1132799 31,22.3867188 L31,24.7304688 C31,25.1601584 30.8437516,25.5312484 30.53125,25.84375 C30.2187484,26.1562516 29.8476584,26.3125 29.4179687,26.3125 L26.3375772,26.3125 C26.2521389,25.9932678 26.11321,25.6892637 25.9258193,25.4081777 C25.7108342,25.0857 25.4641881,24.8011083 25.1824421,24.5596118 C24.9693042,24.3769222 24.7420257,24.2102512 24.5014041,24.0598628 C24.2211792,23.8847222 20.0253792,21.6778126 20.0253792,21.6778126 C20.0253792,21.6778126 20.4062502,21.3518984 20.9735385,19.6500337 C21.4882155,18.1060026 21.75,16.6149691 21.75,15.1796875 L21.75,11.1953125 C21.75,9.190255 20.703993,7.40506969 18.8021245,5.88357488 C17.168477,4.57665687 15.3503585,3.84153658 13.3948678,3.7092361 Z" /></svg>