<?xml version="1.0" encoding="utf-8"?>
<!-- Generator: Adobe Illustrator 18.0.0, SVG Export Plug-In . SVG Version: 6.00 Build 0)  -->
<!DOCTYPE svg PUBLIC "-//W3C//DTD SVG 1.1//EN" "http://www.w3.org/Graphics/SVG/1.1/DTD/svg11.dtd">
<svg version="1.1" id="Layer_1" xmlns="http://www.w3.org/2000/svg" xmlns:xlink="http://www.w3.org/1999/xlink" x="0px" y="0px"
	 viewBox="0 0 12 12" enable-background="new 0 0 12 12" xml:space="preserve">
<path d="M10.9,2.2v1.9c0,0.9-0.1,1.8-0.3,2.6s-0.4,1.5-0.6,2s-0.6,1-0.9,1.4s-0.7,0.7-1,0.9c-0.3,0.2-0.6,0.4-0.9,0.6
	s-0.6,0.2-0.7,0.3S6.2,12,6.1,12c0,0-0.1,0-0.1,0s-0.1,0-0.1,0c-0.1,0-0.2,0-0.3-0.1s-0.4-0.1-0.7-0.3s-0.6-0.3-0.9-0.6
	c-0.3-0.2-0.6-0.5-1-0.9S2.3,9.2,2,8.7s-0.5-1.2-0.6-2S1.1,5.1,1.1,4.1V2.2c0-0.2,0.1-0.4,0.2-0.6c0.1-0.1,0.3-0.2,0.5-0.2
	c0,0,0,0,0,0c0.1,0,0.2,0,0.3,0c0.6,0,1.1-0.1,1.5-0.2c0.1,0,0.2-0.1,0.4-0.1S4.4,1.1,4.5,1s0.2-0.2,0.3-0.2S5,0.6,5.1,0.6
	s0.2-0.1,0.2-0.2s0.1-0.1,0.2-0.2s0.1-0.1,0.1-0.1C5.7,0,5.8,0,6,0s0.3,0,0.4,0.1c0,0,0.1,0.1,0.4,0.3S7.3,0.8,7.5,1S8,1.3,8.2,1.3
	c0.5,0.1,1,0.2,1.5,0.2c0.1,0,0.2,0,0.3,0c0,0,0,0,0,0c0.2,0,0.4,0.1,0.5,0.2C10.8,1.8,10.9,2,10.9,2.2z M10.1,2.2H9.8
	c-0.6,0-1.2-0.1-1.7-0.2C7.4,1.9,6.7,1.5,6,0.8L5.7,1C5.5,1.2,5.2,1.4,4.9,1.6S4.2,2,3.9,2.1C3.4,2.2,2.9,2.2,2.2,2.2
	c-0.2,0-0.3,0-0.4,0v1.9C1.9,5,2,5.8,2.1,6.5s0.3,1.3,0.6,1.8s0.5,0.9,0.8,1.3s0.6,0.7,0.9,0.9s0.5,0.3,0.8,0.5s0.5,0.2,0.6,0.2
	s0.2,0.1,0.2,0.1c0.4-0.1,0.9-0.3,1.4-0.6c1.8-1.2,2.7-3.4,2.7-6.5C10.1,3,10.1,2.4,10.1,2.2z M7.6,4.6L6.5,5.6l1.1,1.1
	c0.2,0.2,0.2,0.4,0,0.5s-0.4,0.2-0.5,0L6,6.2L4.9,7.2c-0.2,0.2-0.4,0.2-0.5,0s-0.2-0.4,0-0.5l1.1-1.1L4.4,4.6
	c-0.2-0.2-0.2-0.4,0-0.5s0.4-0.2,0.5,0L6,5.1l1.1-1.1c0.2-0.2,0.3-0.2,0.5,0S7.8,4.4,7.6,4.6z"/>
</svg>
