<?xml version="1.0" encoding="utf-8"?>
<!-- Generator: Adobe Illustrator 18.0.0, SVG Export Plug-In . SVG Version: 6.00 Build 0)  -->
<!DOCTYPE svg PUBLIC "-//W3C//DTD SVG 1.1//EN" "http://www.w3.org/Graphics/SVG/1.1/DTD/svg11.dtd">
<svg version="1.1" id="Layer_1" xmlns="http://www.w3.org/2000/svg" xmlns:xlink="http://www.w3.org/1999/xlink" x="0px" y="0px"
	 viewBox="0 0 12 12" enable-background="new 0 0 12 12" xml:space="preserve">
<path d="M12,8.8c0,0.2-0.1,0.4-0.2,0.5s-0.3,0.2-0.5,0.2s-0.4-0.1-0.5-0.2S10.5,9,10.5,8.8c0-0.3,0.1-0.5,0.4-0.7V5.5L9.4,6.3
	c0,0,0,0.1,0,0.1v3.3c0,0.1,0,0.2-0.1,0.3c-0.1,0.1-0.2,0.1-0.3,0.2s-0.5,0.2-1,0.3S6.7,10.7,6,10.7s-1.3-0.1-1.9-0.2
	s-0.9-0.2-1-0.3S2.8,10,2.7,10C2.6,9.9,2.6,9.8,2.6,9.7V6.5c0-0.1,0-0.1,0.1-0.2L0.2,5C0.1,5,0,4.8,0,4.7s0.1-0.3,0.2-0.3l5.6-3
	c0.1-0.1,0.2-0.1,0.4,0l5.6,3C11.9,4.4,12,4.6,12,4.7S11.9,5,11.8,5l-0.2,0.1v3C11.9,8.3,12,8.5,12,8.8z M10.8,4.7L6,2.1L1.1,4.7
	L6,7.3L10.8,4.7z M8.6,6.7L6.1,8c0,0-0.1,0-0.2,0S5.9,8,5.8,8L3.4,6.7v2.8C3.9,9.8,4.8,9.9,6,9.9S8,9.8,8.6,9.5V6.7z"/>
</svg>
