<?xml version="1.0" encoding="utf-8"?>
<!-- Generator: Adobe Illustrator 18.0.0, SVG Export Plug-In . SVG Version: 6.00 Build 0)  -->
<!DOCTYPE svg PUBLIC "-//W3C//DTD SVG 1.1//EN" "http://www.w3.org/Graphics/SVG/1.1/DTD/svg11.dtd">
<svg version="1.1" id="Layer_1" xmlns="http://www.w3.org/2000/svg" xmlns:xlink="http://www.w3.org/1999/xlink" x="0px" y="0px"
	 viewBox="0 0 12 12" enable-background="new 0 0 12 12" xml:space="preserve">
<path d="M11.8,11.7c-0.2,0.2-0.4,0.3-0.7,0.3H0.8c-0.3,0-0.5-0.1-0.6-0.2C0,11.6,0,11.4,0,11l0.9-5.9c0-0.4,0.2-0.7,0.5-1
	s0.7-0.4,1-0.4h0.9v-1c0-0.8,0.2-1.4,0.8-2S5.3,0,6,0s1.4,0.3,1.9,0.8s0.7,1.2,0.7,2v1h0.8c0.4,0,0.7,0.1,1,0.4s0.5,0.6,0.5,1l1,5.9
	C12,11.3,11.9,11.5,11.8,11.7z M11.3,11.2l-1-5.9c0-0.2-0.1-0.4-0.3-0.5S9.6,4.5,9.4,4.5H8.6v0.9C8.9,5.5,9,5.7,9,6
	c0,0.2-0.1,0.4-0.2,0.5S8.5,6.8,8.3,6.8S7.9,6.7,7.7,6.5S7.5,6.2,7.5,6c0-0.3,0.1-0.5,0.4-0.6V4.5H4.1v0.9C4.4,5.5,4.5,5.7,4.5,6
	c0,0.2-0.1,0.4-0.2,0.5S4,6.8,3.8,6.8S3.4,6.7,3.2,6.5S3,6.2,3,6c0-0.3,0.1-0.5,0.4-0.6V4.5H2.5c-0.2,0-0.4,0.1-0.5,0.2
	S1.7,5,1.7,5.2l-0.9,5.9c0,0.1,0,0.1,0.1,0.1h10.2C11.2,11.2,11.3,11.2,11.3,11.2z M4.1,3.8h3.8v-1c0-0.6-0.2-1.1-0.5-1.4
	S6.5,0.8,6,0.8S5,0.9,4.7,1.3S4.1,2.2,4.1,2.8V3.8z"/>
</svg>
