<?xml version="1.0" encoding="utf-8"?>
<!-- Generator: Adobe Illustrator 18.0.0, SVG Export Plug-In . SVG Version: 6.00 Build 0)  -->
<!DOCTYPE svg PUBLIC "-//W3C//DTD SVG 1.1//EN" "http://www.w3.org/Graphics/SVG/1.1/DTD/svg11.dtd">
<svg version="1.1" id="Layer_1" xmlns="http://www.w3.org/2000/svg" xmlns:xlink="http://www.w3.org/1999/xlink" x="0px" y="0px"
	 viewBox="0 0 12 12" enable-background="new 0 0 12 12" xml:space="preserve">
<path d="M11.9,9l-0.1,0c-0.1,0.1-0.3,0.1-0.4-0.1l-0.6-1.1c-0.2,1.2-0.7,2.2-1.6,3S7.2,12,6,12s-2.3-0.4-3.2-1.2S1.3,9,1.1,7.8
	L0.6,8.9C0.5,9.1,0.4,9.1,0.2,9L0.1,9C0,8.9-0.1,8.7,0,8.6l1-1.8l0.1-0.1c0-0.1,0.1-0.1,0.2-0.1s0.1,0,0.2,0l0.1,0.1h0l1.7,1.1
	C3.4,7.9,3.4,8,3.4,8.2L3.3,8.3C3.2,8.4,3.1,8.5,2.9,8.3l-1-0.7c0.1,1,0.5,1.8,1.2,2.5s1.5,1.1,2.5,1.1V3.7H4.1
	c-0.1,0-0.2,0-0.3-0.1S3.8,3.5,3.8,3.4s0-0.2,0.1-0.3S4,3,4.1,3h1.5v0C5.3,2.9,5,2.7,4.8,2.4S4.5,1.8,4.5,1.5c0-0.4,0.1-0.8,0.4-1.1
	S5.6,0,6,0s0.8,0.1,1.1,0.4s0.4,0.6,0.4,1.1c0,0.4-0.1,0.7-0.3,0.9S6.7,2.9,6.4,3v0h1.5C8,3,8.1,3,8.1,3.1s0.1,0.2,0.1,0.3
	s0,0.2-0.1,0.3S8,3.7,7.9,3.7H6.4v7.5c1-0.1,1.8-0.5,2.5-1.1s1.1-1.5,1.2-2.5l-1,0.7C8.9,8.5,8.8,8.4,8.7,8.3L8.6,8.2
	C8.6,8,8.6,7.9,8.7,7.8l1.7-1.1h0l0.1-0.1c0.1,0,0.1-0.1,0.2,0s0.1,0.1,0.2,0.1L11,6.8l1,1.8C12.1,8.7,12,8.9,11.9,9z M6,2.2
	c0.2,0,0.4-0.1,0.5-0.2s0.2-0.3,0.2-0.5S6.7,1.1,6.6,0.9S6.2,0.7,6,0.7S5.6,0.8,5.5,0.9S5.2,1.3,5.2,1.5S5.3,1.9,5.5,2
	S5.8,2.2,6,2.2z"/>
</svg>
