<?xml version="1.0" encoding="utf-8"?>
<!-- Generator: Adobe Illustrator 18.0.0, SVG Export Plug-In . SVG Version: 6.00 Build 0)  -->
<!DOCTYPE svg PUBLIC "-//W3C//DTD SVG 1.1//EN" "http://www.w3.org/Graphics/SVG/1.1/DTD/svg11.dtd">
<svg version="1.1" id="Layer_1" xmlns="http://www.w3.org/2000/svg" xmlns:xlink="http://www.w3.org/1999/xlink" x="0px" y="0px"
	 viewBox="0 0 12 12" enable-background="new 0 0 12 12" xml:space="preserve">
<path d="M6.6,6l2.3-2.3c0.2-0.2,0.2-0.5,0-0.6s-0.5-0.2-0.6,0L6,5.4L3.7,3.1c-0.2-0.2-0.5-0.2-0.6,0s-0.2,0.5,0,0.6L5.4,6L3.1,8.3
	c-0.2,0.2-0.2,0.5,0,0.6C3.2,9,3.3,9,3.4,9s0.2,0,0.3-0.1L6,6.6l2.3,2.3C8.4,9,8.5,9,8.6,9s0.2,0,0.3-0.1c0.2-0.2,0.2-0.5,0-0.6
	L6.6,6z"/>
</svg>
