<?xml version="1.0" encoding="utf-8"?>
<!-- Generator: Adobe Illustrator 18.0.0, SVG Export Plug-In . SVG Version: 6.00 Build 0)  -->
<!DOCTYPE svg PUBLIC "-//W3C//DTD SVG 1.1//EN" "http://www.w3.org/Graphics/SVG/1.1/DTD/svg11.dtd">
<svg version="1.1" id="Layer_1" xmlns="http://www.w3.org/2000/svg" xmlns:xlink="http://www.w3.org/1999/xlink" x="0px" y="0px"
	 viewBox="0 0 12 12" enable-background="new 0 0 12 12" xml:space="preserve">
<path d="M12,5.4c-0.1,0.1-0.2,0.2-0.3,0.2L9.5,5.7L8.2,7.4C8.1,7.5,8,7.6,7.9,7.6c0,0,0,0,0,0c-0.2,0-0.3-0.1-0.3-0.3L6.9,5.6
	c0,0,0,0.1,0,0.1l-6.2,6.2C0.5,12,0.5,12,0.3,12s-0.2,0-0.3-0.1S0,11.7,0,11.6s0-0.2,0.1-0.3l6.2-6.2l0,0L4.7,4.6
	C4.6,4.5,4.5,4.4,4.5,4.2s0-0.3,0.1-0.4l1.7-1.3l0.1-2.2c0-0.2,0.1-0.3,0.2-0.3S6.9,0,7,0.1l1.8,1.2l2.1-0.6c0.1,0,0.3,0,0.4,0.1
	s0.1,0.2,0.1,0.4l-0.6,2.1L11.9,5C12,5.2,12.1,5.3,12,5.4z M11,4.9L10,3.5C10,3.4,9.9,3.3,10,3.2l0.5-1.6L8.8,2.1
	c-0.1,0-0.2,0-0.3-0.1L7.1,1.1l0,1.7C7.1,2.9,7,3,6.9,3l-1.3,1l1.6,0.6c0.1,0,0.2,0.1,0.2,0.2L8,6.4l1-1.3C9.1,5,9.2,5,9.3,5L11,4.9
	z"/>
</svg>
