<?xml version="1.0" encoding="utf-8"?>
<!-- Generator: Adobe Illustrator 18.0.0, SVG Export Plug-In . SVG Version: 6.00 Build 0)  -->
<!DOCTYPE svg PUBLIC "-//W3C//DTD SVG 1.1//EN" "http://www.w3.org/Graphics/SVG/1.1/DTD/svg11.dtd">
<svg version="1.1" id="Layer_1" xmlns="http://www.w3.org/2000/svg" xmlns:xlink="http://www.w3.org/1999/xlink" x="0px" y="0px"
	 viewBox="0 0 12 12" enable-background="new 0 0 12 12" xml:space="preserve">
<path d="M11.7,0.3c0.1,0.1,0.2,0.3,0.2,0.5c0,0.2,0,0.5-0.1,0.8c-0.1,0.3-0.3,0.6-0.6,0.9L8.9,5c0,0.4,0.1,1,0.1,1.8S9.1,8.4,9.1,9
	s0.1,1,0.1,1c0,0.2-0.1,0.4-0.2,0.6s-0.4,0.5-0.8,0.8c-0.1,0.1-0.3,0.2-0.4,0.2c0,0,0,0,0,0c-0.2,0-0.3-0.1-0.4-0.3
	C7.1,10.9,6.7,9.7,6,7.9L4.5,9.3c0,0.2,0,0.5,0,0.9s0,0.7,0,0.8c0,0.2-0.1,0.5-0.3,0.7C4,11.9,3.9,12,3.7,12h0
	c-0.1,0-0.2-0.1-0.3-0.2c0,0-0.2-0.3-0.6-0.9S2.3,10,2.2,9.8C1,9.2,0.4,8.7,0.2,8.6C0.1,8.5,0,8.4,0,8.2C0,8.1,0.1,8,0.2,7.9l0,0
	c0.3-0.2,0.5-0.4,0.7-0.4c0,0,0,0,0.1,0c0.1,0,0.3,0,0.6,0s0.6,0,0.8,0c0.1,0,0.2,0,0.2,0L4.2,6C2.3,5.3,1.1,4.9,0.6,4.7
	C0.4,4.6,0.3,4.5,0.3,4.3s0-0.3,0.2-0.5L1.4,3c0.2-0.2,0.4-0.2,0.6-0.2c0,0,0,0,0,0c0,0,0.4,0,1,0.1S4.3,3,5.2,3S6.6,3.1,7,3.1
	l2.5-2.5C9.9,0.2,10.4,0,10.9,0C11.3,0,11.6,0.1,11.7,0.3z M10,1.2L7.5,3.7L7.3,3.9L7,3.9C6.5,3.9,5.5,3.8,4,3.7
	C2.7,3.6,2,3.6,1.9,3.6h0c0,0-0.1,0-0.1,0C1.7,3.7,1.5,3.9,1.3,4.1C2.5,4.6,3.6,5,4.4,5.3l1.1,0.4L4.7,6.5L3.2,8L3,8.2H2.7
	c-0.1,0-0.2,0-0.3,0c-0.2,0-0.5,0-0.9,0c-0.3,0-0.4,0-0.5,0h0l0,0c0.5,0.3,1,0.7,1.6,1l0.2,0.1l0.1,0.1c0.1,0.1,0.4,0.6,0.9,1.4
	c0,0,0,0.1,0.1,0.2l0,0h0c0-0.1,0-0.3,0-0.7c0-0.5,0-0.9,0-1l0-0.3L4,8.8l1.5-1.5l0.8-0.8l0.4,1.1C7,8.4,7.4,9.5,7.9,10.7
	c0.2-0.2,0.4-0.4,0.5-0.6c0,0,0-0.1,0-0.1s0-0.7-0.1-1.9C8.2,6.6,8.1,5.6,8.1,5l0-0.3l0.2-0.2L10.8,2c0.2-0.2,0.4-0.5,0.4-0.7
	s0.1-0.4,0-0.4s-0.1,0-0.3,0C10.6,0.8,10.3,0.9,10,1.2z"/>
</svg>
