<?xml version="1.0" encoding="utf-8"?>
<!-- Generator: Adobe Illustrator 18.0.0, SVG Export Plug-In . SVG Version: 6.00 Build 0)  -->
<!DOCTYPE svg PUBLIC "-//W3C//DTD SVG 1.1//EN" "http://www.w3.org/Graphics/SVG/1.1/DTD/svg11.dtd">
<svg version="1.1" id="Layer_1" xmlns="http://www.w3.org/2000/svg" xmlns:xlink="http://www.w3.org/1999/xlink" x="0px" y="0px"
	 viewBox="0 0 12 12" enable-background="new 0 0 12 12" xml:space="preserve">
<path d="M12,7.2c0,0.1,0,0.1,0,0.2v3.2c0,0.3-0.1,0.5-0.3,0.7s-0.4,0.3-0.7,0.3h-1c-0.3,0-0.5-0.1-0.7-0.3S9,10.9,9,10.6V7.4
	c0-0.3,0.1-0.5,0.3-0.7S9.7,6.4,10,6.4h1c0.1,0,0.2,0,0.2,0c0-0.3,0-0.6,0-0.7C11,4.4,10.5,3.3,9.5,2.4S7.4,1.1,6,1.1
	c-1.4,0-2.6,0.5-3.6,1.4S0.9,4.7,0.8,6.1c0,0,0,0.1,0,0.1s0,0.1,0,0.2c0.1,0,0.1,0,0.2,0h1c0.3,0,0.5,0.1,0.7,0.3S3,7.1,3,7.4v3.3
	c0,0.3-0.1,0.5-0.3,0.7S2.3,11.6,2,11.6H1c-0.3,0-0.5-0.1-0.7-0.3S0,10.9,0,10.6V7.4c0-0.1,0-0.1,0-0.2V7c0-0.2,0-0.5,0-0.9
	c0.1-1.6,0.7-3,1.8-4.1S4.4,0.4,6,0.4c1.5,0,2.9,0.5,4,1.5s1.8,2.3,1.9,3.8C12,6.1,12,6.5,12,7.1C12,7.1,12,7.1,12,7.2z M0.8,7.2
	c0,0-0.1,0.1-0.1,0.2v3.3c0,0.1,0,0.1,0.1,0.2s0.1,0.1,0.2,0.1h1c0.1,0,0.1,0,0.2-0.1s0.1-0.1,0.1-0.2V7.4c0-0.1,0-0.1-0.1-0.2
	S2.1,7.1,2,7.1H1C0.9,7.1,0.9,7.1,0.8,7.2z M11.2,7.4c0-0.1,0-0.1-0.1-0.2S11.1,7.1,11,7.1h-1c-0.1,0-0.1,0-0.2,0.1S9.8,7.3,9.8,7.4
	v3.2c0,0.1,0,0.1,0.1,0.2s0.1,0.1,0.2,0.1h1c0.1,0,0.1,0,0.2-0.1s0.1-0.1,0.1-0.2V7.4z"/>
</svg>
