<?xml version="1.0" encoding="utf-8"?>
<!-- Generator: Adobe Illustrator 18.0.0, SVG Export Plug-In . SVG Version: 6.00 Build 0)  -->
<!DOCTYPE svg PUBLIC "-//W3C//DTD SVG 1.1//EN" "http://www.w3.org/Graphics/SVG/1.1/DTD/svg11.dtd">
<svg version="1.1" id="Layer_1" xmlns="http://www.w3.org/2000/svg" xmlns:xlink="http://www.w3.org/1999/xlink" x="0px" y="0px"
	 viewBox="0 0 12 12" enable-background="new 0 0 12 12" xml:space="preserve">
<path d="M11.2,6.7c0,1.5-0.5,2.7-1.5,3.7S7.5,12,6,12s-2.7-0.5-3.7-1.5S0.8,8.2,0.8,6.7V1.9v0V0.4c0-0.1,0-0.2,0.1-0.3S1,0,1.1,0
	h2.6C3.9,0,3.9,0,4,0.1s0.1,0.2,0.1,0.3v0.3v5.9c0,0.6,0.2,1,0.6,1.4s0.9,0.6,1.4,0.6c0.5,0,1-0.2,1.3-0.6s0.5-0.9,0.5-1.5V1.9V0.4
	c0-0.1,0-0.2,0.1-0.3S8.1,0,8.2,0h2.6c0.1,0,0.2,0,0.3,0.1s0.1,0.2,0.1,0.3v0.3V6.7z M1.5,0.8v1.5h1.9V0.8H1.5z M10.5,6.7V3H8.6v3.6
	c0,0.8-0.2,1.5-0.7,2S6.9,9.4,6.1,9.4c-0.8,0-1.4-0.3-2-0.8s-0.8-1.2-0.8-2V3H1.5v3.7C1.5,8,1.9,9,2.8,9.9s1.9,1.3,3.2,1.3
	s2.3-0.4,3.2-1.3S10.5,8,10.5,6.7z M8.6,0.8v1.5h1.9V0.8H8.6z"/>
</svg>
