<?xml version="1.0" encoding="utf-8"?>
<!-- Generator: Adobe Illustrator 18.0.0, SVG Export Plug-In . SVG Version: 6.00 Build 0)  -->
<!DOCTYPE svg PUBLIC "-//W3C//DTD SVG 1.1//EN" "http://www.w3.org/Graphics/SVG/1.1/DTD/svg11.dtd">
<svg version="1.1" id="Layer_1" xmlns="http://www.w3.org/2000/svg" xmlns:xlink="http://www.w3.org/1999/xlink" x="0px" y="0px"
	 viewBox="0 0 12 12" enable-background="new 0 0 12 12" xml:space="preserve">
<path d="M12,4.8c0,0.1-0.1,0.2-0.2,0.3c-0.4,0.1-0.9,0.2-1.3,0.2c-0.3,0-0.6,0-1-0.1v0l-2.1,2C7.9,8.3,8,9.4,7.6,10.5
	c0,0.1-0.1,0.2-0.3,0.3c0,0-0.1,0-0.1,0c-0.1,0-0.2,0-0.3-0.1L4.4,8.1l-3.7,3.6L0,12l0.3-0.8l3.6-3.7L1.3,4.9
	C1.2,4.9,1.2,4.7,1.2,4.6s0.1-0.2,0.2-0.3c0.4-0.1,0.9-0.2,1.3-0.2c0.7,0,1.4,0.2,2,0.5l2-2c0,0,0,0,0,0C6.7,1.9,6.7,1.1,7,0.3
	C7,0.1,7.1,0.1,7.2,0s0.3,0,0.4,0.1l4.3,4.3C12,4.5,12,4.7,12,4.8z M6.8,7.8c-0.2-0.6-0.6-1.2-1-1.6c-0.5-0.5-1-0.8-1.6-1.1
	S3,4.8,2.3,4.9l4.7,4.8C7.1,9,7.1,8.4,6.8,7.8z M8.7,4.8C8.4,4.7,8.1,4.4,7.8,4.2C7.6,3.9,7.3,3.6,7.2,3.3L5.5,5
	c0.3,0.2,0.6,0.4,0.9,0.7S6.8,6.2,7,6.5L8.7,4.8z M10.9,4.5L7.5,1.1c-0.1,1,0.1,1.8,0.8,2.5C9.1,4.3,9.9,4.6,10.9,4.5z"/>
</svg>
