<?xml version="1.0" encoding="utf-8"?>
<!-- Generator: Adobe Illustrator 18.0.0, SVG Export Plug-In . SVG Version: 6.00 Build 0)  -->
<!DOCTYPE svg PUBLIC "-//W3C//DTD SVG 1.1//EN" "http://www.w3.org/Graphics/SVG/1.1/DTD/svg11.dtd">
<svg version="1.1" id="Layer_1" xmlns="http://www.w3.org/2000/svg" xmlns:xlink="http://www.w3.org/1999/xlink" x="0px" y="0px"
	 viewBox="0 0 12 12" enable-background="new 0 0 12 12" xml:space="preserve">
<path d="M12,6c0,1.7-0.6,3.1-1.8,4.2S7.7,12,6,12s-3.1-0.6-4.2-1.8S0,7.7,0,6s0.6-3.1,1.8-4.2S4.3,0,6,0s3.1,0.6,4.2,1.8
	S12,4.3,12,6z M2.3,9.7c1,1,2.3,1.5,3.7,1.5c0.9,0,1.7-0.2,2.4-0.6l-2-3.2C6.3,7.5,6.1,7.5,6,7.5c-0.4,0-0.8-0.1-1.1-0.4
	S4.5,6.4,4.5,6c0-0.1,0-0.2,0-0.3L1.2,3.9C0.9,4.6,0.8,5.3,0.8,6C0.8,7.5,1.3,8.7,2.3,9.7z M1.5,3.2L4.9,5l0,0l-2-3.2
	C2.4,2.2,1.9,2.7,1.5,3.2z M9.7,2.3c-1-1-2.3-1.5-3.7-1.5C5.1,0.8,4.3,1,3.5,1.4l2,3.2C5.7,4.5,5.8,4.5,6,4.5c0.4,0,0.8,0.1,1.1,0.4
	S7.5,5.6,7.5,6c0,0.1,0,0.3-0.1,0.4l3.3,1.8c0.3-0.7,0.5-1.4,0.5-2.2C11.2,4.5,10.7,3.3,9.7,2.3z M5.2,6c0,0.2,0.1,0.4,0.2,0.5
	S5.8,6.8,6,6.8s0.4-0.1,0.5-0.2S6.8,6.2,6.8,6S6.7,5.6,6.5,5.5S6.2,5.2,6,5.2S5.6,5.3,5.5,5.5S5.2,5.8,5.2,6z M10.4,8.8L7.1,7.1
	c0,0,0,0,0,0l2,3.2C9.6,9.9,10,9.4,10.4,8.8z"/>
</svg>
