<?xml version="1.0" encoding="utf-8"?>
<!-- Generator: Adobe Illustrator 18.0.0, SVG Export Plug-In . SVG Version: 6.00 Build 0)  -->
<!DOCTYPE svg PUBLIC "-//W3C//DTD SVG 1.1//EN" "http://www.w3.org/Graphics/SVG/1.1/DTD/svg11.dtd">
<svg version="1.1" id="Layer_1" xmlns="http://www.w3.org/2000/svg" xmlns:xlink="http://www.w3.org/1999/xlink" x="0px" y="0px"
	 viewBox="0 0 12 12" enable-background="new 0 0 12 12" xml:space="preserve">
<path d="M0.1,0.6C0,0.6,0,0.5,0,0.4s0-0.2,0.1-0.3S0.3,0,0.4,0h5.2c0.1,0,0.2,0,0.3,0.1S6,0.3,6,0.4s0,0.2-0.1,0.3S5.7,0.8,5.6,0.8
	H0.4C0.3,0.8,0.2,0.7,0.1,0.6z M0.1,2.9C0,2.8,0,2.7,0,2.6s0-0.2,0.1-0.3s0.2-0.1,0.3-0.1h5.2c0.1,0,0.2,0,0.3,0.1S6,2.5,6,2.6
	s0,0.2-0.1,0.3S5.7,3,5.6,3H0.4C0.3,3,0.2,3,0.1,2.9z M5.6,5.2H0.4c-0.1,0-0.2,0-0.3-0.1S0,5,0,4.9s0-0.2,0.1-0.3s0.2-0.1,0.3-0.1
	h5.2c0.1,0,0.2,0,0.3,0.1S6,4.8,6,4.9s0,0.2-0.1,0.3S5.7,5.2,5.6,5.2z M11.9,4.3c-0.2,0.2-0.4,0.2-0.5,0L8.3,1.3V10
	c0,0.1,0,0.1,0,0.1c0,0.5-0.2,1-0.7,1.3S6.6,12,6,12s-1.2-0.2-1.6-0.6s-0.7-0.8-0.7-1.3s0.2-1,0.7-1.3s1-0.6,1.6-0.6
	c0.6,0,1.1,0.2,1.5,0.5V0.4c0-0.2,0.1-0.3,0.3-0.4C7.9,0,8.1,0,8.2,0.1l3.7,3.7C12,4,12,4.2,11.9,4.3z M7.5,10.1
	c0-0.3-0.2-0.5-0.5-0.7S6.4,9,6,9C5.6,9,5.2,9.1,4.9,9.4s-0.4,0.5-0.4,0.8s0.1,0.5,0.4,0.8s0.6,0.4,1.1,0.4c0.4,0,0.8-0.1,1-0.3
	S7.5,10.4,7.5,10.1L7.5,10.1z"/>
</svg>
