<?xml version="1.0" encoding="utf-8"?>
<!-- Generator: Adobe Illustrator 18.0.0, SVG Export Plug-In . SVG Version: 6.00 Build 0)  -->
<!DOCTYPE svg PUBLIC "-//W3C//DTD SVG 1.1//EN" "http://www.w3.org/Graphics/SVG/1.1/DTD/svg11.dtd">
<svg version="1.1" id="Layer_1" xmlns="http://www.w3.org/2000/svg" xmlns:xlink="http://www.w3.org/1999/xlink" x="0px" y="0px"
	 viewBox="0 0 12 12" enable-background="new 0 0 12 12" xml:space="preserve">
<path d="M11.8,0.4C11.9,0.6,12,0.7,12,0.9v10.1c0,0.2-0.1,0.4-0.2,0.5s-0.3,0.2-0.5,0.2H0.8c-0.2,0-0.4-0.1-0.5-0.2S0,11.3,0,11.1
	V0.9c0-0.2,0.1-0.4,0.2-0.5s0.3-0.2,0.5-0.2h10.5C11.5,0.2,11.6,0.3,11.8,0.4z M11.3,0.9H0.8v10.1h10.5V0.9z M1.6,3.1
	C1.5,3,1.5,2.9,1.5,2.8V2.4c0-0.1,0-0.2,0.1-0.3s0.2-0.1,0.3-0.1h0.8c0.1,0,0.2,0,0.3,0.1S3,2.3,3,2.4v0.4C3,2.9,3,3,2.9,3.1
	S2.7,3.2,2.6,3.2H1.9C1.8,3.2,1.7,3.2,1.6,3.1z M1.6,5.3C1.5,5.3,1.5,5.2,1.5,5.1V4.7c0-0.1,0-0.2,0.1-0.3s0.2-0.1,0.3-0.1h0.8
	c0.1,0,0.2,0,0.3,0.1S3,4.6,3,4.7v0.4c0,0.1,0,0.2-0.1,0.3S2.7,5.4,2.6,5.4H1.9C1.8,5.4,1.7,5.4,1.6,5.3z M1.6,7.6
	C1.5,7.5,1.5,7.4,1.5,7.3V6.9c0-0.1,0-0.2,0.1-0.3s0.2-0.1,0.3-0.1h0.8c0.1,0,0.2,0,0.3,0.1S3,6.8,3,6.9v0.4c0,0.1,0,0.2-0.1,0.3
	S2.7,7.7,2.6,7.7H1.9C1.8,7.7,1.7,7.7,1.6,7.6z M1.6,9.8C1.5,9.8,1.5,9.7,1.5,9.6V9.2c0-0.1,0-0.2,0.1-0.3s0.2-0.1,0.3-0.1h0.8
	c0.1,0,0.2,0,0.3,0.1S3,9.1,3,9.2v0.4c0,0.1,0,0.2-0.1,0.3S2.7,9.9,2.6,9.9H1.9C1.8,9.9,1.7,9.9,1.6,9.8z M9.1,3.1C9,3,9,2.9,9,2.8
	V2.4c0-0.1,0-0.2,0.1-0.3s0.2-0.1,0.3-0.1h0.8c0.1,0,0.2,0,0.3,0.1s0.1,0.2,0.1,0.3v0.4c0,0.1,0,0.2-0.1,0.3s-0.2,0.1-0.3,0.1H9.4
	C9.3,3.2,9.2,3.2,9.1,3.1z M9.1,5.3C9,5.3,9,5.2,9,5.1V4.7c0-0.1,0-0.2,0.1-0.3s0.2-0.1,0.3-0.1h0.8c0.1,0,0.2,0,0.3,0.1
	s0.1,0.2,0.1,0.3v0.4c0,0.1,0,0.2-0.1,0.3s-0.2,0.1-0.3,0.1H9.4C9.3,5.4,9.2,5.4,9.1,5.3z M9.1,7.6C9,7.5,9,7.4,9,7.3V6.9
	c0-0.1,0-0.2,0.1-0.3s0.2-0.1,0.3-0.1h0.8c0.1,0,0.2,0,0.3,0.1s0.1,0.2,0.1,0.3v0.4c0,0.1,0,0.2-0.1,0.3s-0.2,0.1-0.3,0.1H9.4
	C9.3,7.7,9.2,7.7,9.1,7.6z M9.1,9.8C9,9.8,9,9.7,9,9.6V9.2C9,9.1,9,9,9.1,8.9s0.2-0.1,0.3-0.1h0.8c0.1,0,0.2,0,0.3,0.1
	s0.1,0.2,0.1,0.3v0.4c0,0.1,0,0.2-0.1,0.3s-0.2,0.1-0.3,0.1H9.4C9.3,9.9,9.2,9.9,9.1,9.8z"/>
</svg>
