<?xml version="1.0" encoding="utf-8"?>
<!-- Generator: Adobe Illustrator 18.0.0, SVG Export Plug-In . SVG Version: 6.00 Build 0)  -->
<!DOCTYPE svg PUBLIC "-//W3C//DTD SVG 1.1//EN" "http://www.w3.org/Graphics/SVG/1.1/DTD/svg11.dtd">
<svg version="1.1" id="Layer_1" xmlns="http://www.w3.org/2000/svg" xmlns:xlink="http://www.w3.org/1999/xlink" x="0px" y="0px"
	 viewBox="0 0 12 12" enable-background="new 0 0 12 12" xml:space="preserve">
<path d="M6,12c-0.2,0-0.5-0.1-0.6-0.3L0.3,6.6C0.1,6.5,0,6.2,0,6s0.1-0.5,0.3-0.6l1.9-1.9c0.1-0.1,0.3-0.1,0.4-0.1s0.2,0.2,0.2,0.4
	c0,0.1,0,0.2,0,0.3c0,0.4,0.1,0.8,0.4,1.1s0.6,0.4,1,0.4c0.4,0,0.7-0.1,1-0.4s0.4-0.7,0.4-1.1S5.5,3.3,5.2,3s-0.6-0.4-1-0.4
	c-0.1,0-0.2,0-0.3,0c-0.2,0-0.3,0-0.4-0.2S3.5,2.1,3.6,2l1.7-1.7C5.5,0.1,5.8,0,6,0s0.5,0.1,0.6,0.3l1.3,1.3c0.1-0.4,0.4-0.8,0.8-1
	s0.8-0.4,1.2-0.4c0.6,0,1.1,0.2,1.5,0.6s0.6,0.9,0.6,1.5c0,0.5-0.1,0.9-0.4,1.2s-0.6,0.6-1,0.8l1.2,1.2C11.9,5.5,12,5.8,12,6
	s-0.1,0.5-0.3,0.6l-5.1,5.1C6.5,11.9,6.2,12,6,12z M2,4.6L0.8,5.9C0.7,6,0.7,6,0.8,6.1l5.1,5.1c0.1,0.1,0.1,0.1,0.2,0l5.1-5.1
	c0.1-0.1,0.1-0.1,0-0.2L9.4,4.1C9.3,4,9.2,3.8,9.3,3.7s0.2-0.2,0.4-0.2l0,0c0,0,0.1,0,0.1,0c0.4,0,0.7-0.1,0.9-0.4s0.4-0.6,0.4-0.9
	s-0.1-0.7-0.4-0.9s-0.6-0.4-0.9-0.4S9.2,1,8.9,1.2S8.6,1.8,8.6,2.2c0,0,0,0,0,0.1v0.1c0,0.2-0.1,0.3-0.2,0.4S8.1,2.8,7.9,2.6
	L6.1,0.8C6,0.7,6,0.7,5.9,0.8L4.8,1.9C5.2,2,5.6,2.3,5.9,2.7s0.5,0.9,0.5,1.4c0,0.6-0.2,1.2-0.6,1.6C5.3,6.1,4.8,6.4,4.2,6.4
	c-0.5,0-1-0.2-1.4-0.5S2.2,5.1,2,4.6z"/>
</svg>
