<?xml version="1.0" encoding="utf-8"?>
<!-- Generator: Adobe Illustrator 18.0.0, SVG Export Plug-In . SVG Version: 6.00 Build 0)  -->
<!DOCTYPE svg PUBLIC "-//W3C//DTD SVG 1.1//EN" "http://www.w3.org/Graphics/SVG/1.1/DTD/svg11.dtd">
<svg version="1.1" id="Layer_1" xmlns="http://www.w3.org/2000/svg" xmlns:xlink="http://www.w3.org/1999/xlink" x="0px" y="0px"
	 viewBox="0 0 12 12" enable-background="new 0 0 12 12" xml:space="preserve">
<path d="M12,7.8C12,7.8,12,7.8,12,7.8c0,0.1,0,0.1,0,0.1c0,0.7-0.3,1.4-0.8,1.9s-1.1,0.8-1.9,0.8S8,10.2,7.5,9.7S6.7,8.6,6.7,7.9
	c0-0.2,0-0.4,0.1-0.6C6.6,7.1,6.3,7.1,6,7.1c-0.3,0-0.6,0-0.8,0.1c0,0.2,0.1,0.4,0.1,0.6c0,0.7-0.3,1.4-0.8,1.9s-1.1,0.8-1.9,0.8
	s-1.4-0.3-1.9-0.8S0,8.6,0,7.9c0,0,0-0.1,0-0.2c0,0,0-0.1,0-0.1c0-0.2,0.2-1.7,0.7-4.3c0,0,0-0.1,0-0.2c0-0.2,0.1-0.4,0.1-0.5
	S0.9,2.3,1,2.1s0.3-0.4,0.6-0.5s0.6-0.2,1-0.2c0.1,0,0.2,0,0.3,0.1S3,1.8,3,1.9s0,0.2-0.1,0.3S2.7,2.2,2.6,2.2c-0.2,0-0.5,0-0.6,0.1
	S1.7,2.4,1.7,2.6S1.5,2.8,1.5,2.8S1.5,3.1,1.4,3.2c0,0.1,0,0.2,0,0.2c0,0-0.1,0.3-0.2,0.9S1,5.4,1,5.9c0.5-0.4,1-0.6,1.7-0.6
	c0.5,0,0.9,0.1,1.3,0.4s0.7,0.5,0.9,0.9C5.2,6.4,5.6,6.4,6,6.4s0.8,0.1,1.1,0.2c0.2-0.4,0.6-0.7,1-0.9s0.8-0.3,1.3-0.3
	c0.6,0,1.1,0.2,1.6,0.5c-0.1-0.4-0.1-0.9-0.2-1.5s-0.2-0.9-0.2-0.9c0,0,0-0.1,0-0.2c0-0.2,0-0.3-0.1-0.4s-0.1-0.2-0.2-0.3
	S10.1,2.4,10,2.3S9.6,2.2,9.3,2.2c-0.1,0-0.2,0-0.3-0.1S9,2,9,1.9s0-0.2,0.1-0.3s0.2-0.1,0.3-0.1c0.4,0,0.7,0.1,1,0.2
	s0.5,0.3,0.6,0.5s0.2,0.4,0.2,0.5s0.1,0.3,0.1,0.5c0,0.1,0,0.2,0,0.2C11.8,6.2,12,7.6,12,7.6C12,7.7,12,7.7,12,7.8z M4.5,7.9
	c0-0.5-0.2-1-0.5-1.3C3.6,6.2,3.2,6,2.6,6s-1,0.2-1.3,0.6S0.7,7.4,0.7,7.9s0.2,0.9,0.6,1.3s0.8,0.6,1.3,0.6s1-0.2,1.3-0.6
	S4.5,8.4,4.5,7.9z M11.2,7.9L11.2,7.9c0-0.1,0-0.2,0-0.2c0-0.1,0-0.1,0-0.2c-0.1-0.4-0.3-0.8-0.6-1S9.8,6,9.4,6
	c-0.5,0-1,0.2-1.3,0.6S7.5,7.4,7.5,7.9s0.2,0.9,0.6,1.3s0.8,0.6,1.3,0.6s0.8,0,0.8,0s0.2-0.2,0.5-0.6S11.2,8.4,11.2,7.9z"/>
</svg>
