<?xml version="1.0" encoding="utf-8"?>
<!-- Generator: Adobe Illustrator 18.0.0, SVG Export Plug-In . SVG Version: 6.00 Build 0)  -->
<!DOCTYPE svg PUBLIC "-//W3C//DTD SVG 1.1//EN" "http://www.w3.org/Graphics/SVG/1.1/DTD/svg11.dtd">
<svg version="1.1" id="Layer_1" xmlns="http://www.w3.org/2000/svg" xmlns:xlink="http://www.w3.org/1999/xlink" x="0px" y="0px"
	 viewBox="0 0 12 12" enable-background="new 0 0 12 12" xml:space="preserve">
<path d="M2.9,1.4C3,1.5,3,1.6,3,1.7S3,1.9,2.9,2S2.7,2.1,2.6,2.1H0.7v1.9c0,0.1,0,0.2-0.1,0.3S0.5,4.3,0.4,4.3s-0.2,0-0.3-0.1
	S0,4,0,3.9V1.7c0-0.1,0-0.2,0.1-0.3s0.2-0.1,0.3-0.1h2.2C2.7,1.3,2.8,1.3,2.9,1.4z M2.9,10C3,10.1,3,10.2,3,10.3s0,0.2-0.1,0.3
	s-0.2,0.1-0.3,0.1H0.4c-0.1,0-0.2,0-0.3-0.1S0,10.4,0,10.3V8.1C0,8,0,7.9,0.1,7.8s0.2-0.1,0.3-0.1s0.2,0,0.3,0.1S0.7,8,0.7,8.1v1.9
	h1.9C2.7,9.9,2.8,10,2.9,10z M11.9,1.4C12,1.5,12,1.6,12,1.7v2.2c0,0.1,0,0.2-0.1,0.3s-0.2,0.1-0.3,0.1s-0.2,0-0.3-0.1
	S11.2,4,11.2,3.9V2.1H9.4C9.3,2.1,9.2,2,9.1,2S9,1.8,9,1.7s0-0.2,0.1-0.3s0.2-0.1,0.3-0.1h2.2C11.7,1.3,11.8,1.3,11.9,1.4z M12,8.1
	v2.2c0,0.1,0,0.2-0.1,0.3s-0.2,0.1-0.3,0.1H9.4c-0.1,0-0.2,0-0.3-0.1S9,10.4,9,10.3s0-0.2,0.1-0.3s0.2-0.1,0.3-0.1h1.9V8.1
	c0-0.1,0-0.2,0.1-0.3s0.2-0.1,0.3-0.1s0.2,0,0.3,0.1S12,8,12,8.1z"/>
</svg>
