<?xml version="1.0" encoding="utf-8"?>
<!-- Generator: Adobe Illustrator 18.0.0, SVG Export Plug-In . SVG Version: 6.00 Build 0)  -->
<!DOCTYPE svg PUBLIC "-//W3C//DTD SVG 1.1//EN" "http://www.w3.org/Graphics/SVG/1.1/DTD/svg11.dtd">
<svg version="1.1" id="Layer_1" xmlns="http://www.w3.org/2000/svg" xmlns:xlink="http://www.w3.org/1999/xlink" x="0px" y="0px"
	 viewBox="0 0 12 12" enable-background="new 0 0 12 12" xml:space="preserve">
<path d="M11.8,1.2C11.9,1.3,12,1.5,12,1.7v8.6c0,0.2-0.1,0.4-0.2,0.5s-0.3,0.2-0.5,0.2H0.7c-0.2,0-0.4-0.1-0.5-0.2S0,10.5,0,10.3
	V1.7c0-0.2,0.1-0.4,0.2-0.5s0.3-0.2,0.5-0.2h10.5C11.5,0.9,11.6,1,11.8,1.2z M11.2,1.7H0.7v5.4l2.7-2.7c0.1-0.1,0.2-0.1,0.3-0.1
	S4,4.3,4,4.4l3.1,3.1l1.4-1.2c0.2-0.1,0.3-0.1,0.5,0l2.2,2.2V1.7z M11.2,9.6C11.2,9.6,11.2,9.6,11.2,9.6L8.7,7.1L7.4,8.3
	C7.2,8.5,7,8.5,6.9,8.3L3.7,5.2l-3,2.9v2.2h10.5V9.6z M7.9,3.9c0-0.2,0.1-0.4,0.2-0.5s0.3-0.2,0.5-0.2S9,3.3,9.2,3.4
	s0.2,0.3,0.2,0.5S9.3,4.3,9.2,4.5S8.8,4.7,8.6,4.7S8.2,4.6,8.1,4.5S7.9,4.1,7.9,3.9z"/>
</svg>
