<?xml version="1.0" encoding="utf-8"?>
<!-- Generator: Adobe Illustrator 18.0.0, SVG Export Plug-In . SVG Version: 6.00 Build 0)  -->
<!DOCTYPE svg PUBLIC "-//W3C//DTD SVG 1.1//EN" "http://www.w3.org/Graphics/SVG/1.1/DTD/svg11.dtd">
<svg version="1.1" id="Layer_1" xmlns="http://www.w3.org/2000/svg" xmlns:xlink="http://www.w3.org/1999/xlink" x="0px" y="0px"
	 viewBox="0 0 12 12" enable-background="new 0 0 12 12" xml:space="preserve">
<path d="M4.3,9.9c0,0.6-0.2,1.1-0.6,1.5S2.7,12,2.2,12s-1.1-0.2-1.5-0.6S0,10.4,0,9.9s0.2-1.1,0.6-1.5s0.9-0.6,1.5-0.6
	s1.1,0.2,1.5,0.6S4.3,9.3,4.3,9.9z M3.5,9.9c0-0.4-0.1-0.7-0.4-1s-0.6-0.4-1-0.4s-0.7,0.1-1,0.4s-0.4,0.6-0.4,1s0.1,0.7,0.4,1
	s0.6,0.4,1,0.4s0.7-0.1,1-0.4S3.5,10.2,3.5,9.9z M5.4,0.9c1.3,0.6,2.5,1.3,3.4,2.3s1.7,2.1,2.3,3.4S12,9.3,12,10.8
	c0,0.1,0,0.2-0.1,0.3s-0.2,0.1-0.3,0.1s-0.2,0-0.3-0.1s-0.1-0.2-0.1-0.3c0-1.8-0.4-3.5-1.3-5S7.7,3,6.2,2.1S3,0.8,1.2,0.8
	c-0.1,0-0.2,0-0.3-0.1S0.8,0.5,0.8,0.4s0-0.2,0.1-0.3S1.1,0,1.2,0C2.6,0,4,0.3,5.4,0.9z M6.1,5.8c1.3,1.3,2,3,2,5
	c0,0.1,0,0.2-0.1,0.3s-0.2,0.1-0.3,0.1s-0.2,0-0.3-0.1s-0.1-0.2-0.1-0.3c0-1.8-0.6-3.3-1.8-4.4S3,4.6,1.2,4.6c-0.1,0-0.2,0-0.3-0.1
	S0.8,4.4,0.8,4.3s0-0.2,0.1-0.3s0.2-0.1,0.3-0.1C3.2,3.9,4.8,4.5,6.1,5.8z"/>
</svg>
