<svg viewBox="0 0 32 32" enable-background="new 0 0 32 32" xmlns="http://www.w3.org/2000/svg"><title>user-follow-filled</title><path d="M21.9109879,28.6927929 C21.0783157,28.6927929 20.074419,27.8581276 20.074419,26.2072716 C20.074419,24.5564156 20.9804688,23.7299995 21.9109879,23.7299995 L23.4400005,23.7299995 L23.4400005,21.7421875 L20.9804688,20.5703125 C22.1523496,19.6328078 23.0214815,18.3535237 23.5878906,16.7324219 C24.1542997,15.11132 24.4375,13.6171943 24.4375,12.25 L24.4375,7.5625 C24.4375,5.99999219 23.5390715,4.51563203 21.7421875,3.109375 C19.9453035,1.70311797 18.0214946,1 15.9707031,1 C13.9199116,1 12.0058683,1.70311797 10.2285156,3.109375 C8.45116299,4.51563203 7.5625,5.99999219 7.5625,7.5625 L7.5625,12.25 C7.5625,13.5390689 7.85546582,15.003898 8.44140625,16.6445312 C9.02734668,18.2851645 9.9257752,19.5937451 11.1367188,20.5703125 L2.875,24.4375 C2.71874922,24.4765627 2.54296973,24.5546869 2.34765625,24.671875 C2.15234277,24.7890631 1.87890801,25.0136702 1.52734375,25.3457031 C1.17577949,25.677736 1,25.9999984 1,26.3125 L1,29.125 C1,29.632815 1.18554502,30.0722638 1.55664062,30.4433594 C1.92773623,30.814455 2.36718496,31 2.875,31 L23.5,31 L23.5,28.6927929 L21.9109879,28.6927929 Z M30.0625,25.375 L27.25,25.375 L27.25,22.5625 C27.25,22.2890611 27.1621103,22.064454 26.9863281,21.8886719 C26.810546,21.7128897 26.5859389,21.625 26.3125,21.625 C26.0390611,21.625 25.814454,21.7128897 25.6386719,21.8886719 C25.4628897,22.064454 25.375,22.2890611 25.375,22.5625 L25.375,25.375 L22.5625,25.375 C22.2890611,25.375 22.064454,25.4628897 21.8886719,25.6386719 C21.7128897,25.814454 21.625,26.0390611 21.625,26.3125 C21.625,26.5859389 21.7128897,26.810546 21.8886719,26.9863281 C22.064454,27.1621103 22.2890611,27.25 22.5625,27.25 L25.375,27.25 L25.375,30.0625 C25.375,30.3359389 25.4628897,30.560546 25.6386719,30.7363281 C25.814454,30.9121103 26.0390611,31 26.3125,31 C26.5859389,31 26.810546,30.9121103 26.9863281,30.7363281 C27.1621103,30.560546 27.25,30.3359389 27.25,30.0625 L27.25,27.25 L30.0625,27.25 C30.3359389,27.25 30.560546,27.1621103 30.7363281,26.9863281 C30.9121103,26.810546 31,26.5859389 31,26.3125 C31,26.0390611 30.9121103,25.814454 30.7363281,25.6386719 C30.560546,25.4628897 30.3359389,25.375 30.0625,25.375 L30.0625,25.375 Z" /></svg>