<svg viewBox="-469 271 32 32" xmlns="http://www.w3.org/2000/svg"><title>pointer</title><path d="M-453,302.4c-4.4,0-12.5-11.8-12.5-18.3c0-6.9,5.6-12.5,12.5-12.5s12.5,5.6,12.5,12.5C-440.5,290.6-448.6,302.4-453,302.4z M-453,273.6c-5.8,0-10.5,4.7-10.5,10.5c0,6.2,7.7,16.3,10.5,16.3s10.5-10.1,10.5-16.3C-442.5,278.3-447.2,273.6-453,273.6z M-453,290.9c-3.7,0-6.8-3-6.8-6.8s3-6.8,6.8-6.8s6.8,3,6.8,6.8S-449.3,290.9-453,290.9z M-453,279.4c-2.6,0-4.8,2.1-4.8,4.8s2.1,4.8,4.8,4.8s4.8-2.1,4.8-4.8S-450.4,279.4-453,279.4z"/></svg>
