<?xml version="1.0" encoding="utf-8"?>
<!-- Generator: Adobe Illustrator 18.0.0, SVG Export Plug-In . SVG Version: 6.00 Build 0)  -->
<!DOCTYPE svg PUBLIC "-//W3C//DTD SVG 1.1//EN" "http://www.w3.org/Graphics/SVG/1.1/DTD/svg11.dtd">
<svg version="1.1" id="Layer_1" xmlns="http://www.w3.org/2000/svg" xmlns:xlink="http://www.w3.org/1999/xlink" x="0px" y="0px"
	 viewBox="0 0 12 12" enable-background="new 0 0 12 12" xml:space="preserve">
<path d="M5.2,9C4.1,9,3.1,8.6,2.3,7.8S1.1,6,1.1,4.9S1.5,2.8,2.3,2s1.8-1.2,2.9-1.2S7.3,1.2,8.2,2s1.2,1.8,1.2,2.9S9,7,8.2,7.8
	S6.4,9,5.2,9z M5.2,8.2c0.9,0,1.7-0.3,2.4-1s1-1.4,1-2.4s-0.3-1.7-1-2.4s-1.5-1-2.4-1s-1.7,0.3-2.4,1s-1,1.5-1,2.4s0.3,1.7,1,2.4
	S4.3,8.2,5.2,8.2z M9.5,8.7c-0.9,1-2.1,1.6-3.5,1.8v0.8h1.1c0.1,0,0.2,0,0.3,0.1s0.1,0.2,0.1,0.3s0,0.2-0.1,0.3S7.2,12,7.1,12h-3
	c-0.1,0-0.2,0-0.3-0.1s-0.1-0.2-0.1-0.3s0-0.2,0.1-0.3s0.2-0.1,0.3-0.1h1.1v-0.8c-0.7,0-1.4-0.1-2.1-0.4C3,10.1,3,10,2.9,9.9
	s0-0.2,0-0.3S3,9.4,3.1,9.4s0.2,0,0.3,0C4,9.6,4.6,9.8,5.2,9.8c1.4,0,2.6-0.5,3.5-1.4s1.4-2.1,1.4-3.5c0-0.8-0.2-1.6-0.6-2.4
	s-1-1.3-1.8-1.8c-0.1,0-0.2-0.1-0.2-0.2s0-0.2,0-0.3S7.7,0,7.8,0S8,0,8.1,0C9,0.6,9.7,1.2,10.2,2.1s0.7,1.8,0.7,2.8
	C10.9,6.4,10.4,7.6,9.5,8.7z"/>
</svg>
