<?xml version="1.0" encoding="utf-8"?>
<!-- Generator: Adobe Illustrator 18.0.0, SVG Export Plug-In . SVG Version: 6.00 Build 0)  -->
<!DOCTYPE svg PUBLIC "-//W3C//DTD SVG 1.1//EN" "http://www.w3.org/Graphics/SVG/1.1/DTD/svg11.dtd">
<svg version="1.1" id="Layer_1" xmlns="http://www.w3.org/2000/svg" xmlns:xlink="http://www.w3.org/1999/xlink" x="0px" y="0px"
	 viewBox="0 0 12 12" enable-background="new 0 0 12 12" xml:space="preserve">
<path d="M12,10.3c0,0.3-0.1,0.6-0.3,0.8s-0.5,0.3-0.8,0.3H1.1c-0.3,0-0.6-0.1-0.8-0.3S0,10.6,0,10.3v-6C0,4,0.1,3.7,0.3,3.5
	s0.5-0.3,0.8-0.3h0.4V1.7c0-0.3,0.1-0.6,0.3-0.8s0.5-0.3,0.8-0.3h0.1l8.4,1.7C11.7,2.4,12,2.8,12,3.4V10.3z M11.2,3.6
	c0,0.1-0.1,0.2-0.2,0.3s-0.3,0.1-0.5,0.1H1.1C1,3.9,0.9,4,0.9,4.1S0.7,4.2,0.7,4.3v6c0,0.1,0,0.2,0.1,0.3s0.2,0.1,0.3,0.1h9.8
	c0.1,0,0.2,0,0.3-0.1s0.1-0.2,0.1-0.3V3.6z M3,7.3c0,0.2-0.1,0.4-0.2,0.5S2.5,8.1,2.2,8.1S1.9,8,1.7,7.9S1.5,7.5,1.5,7.3
	s0.1-0.4,0.2-0.5S2,6.6,2.2,6.6s0.4,0.1,0.5,0.2S3,7.1,3,7.3z M2.2,3.2h8.2c0.1,0,0.2,0,0.2,0s0.1-0.1,0.1-0.1s0-0.1,0-0.1L2.6,1.3
	c-0.1,0-0.2,0-0.2,0.1S2.2,1.6,2.2,1.7V3.2z"/>
</svg>
