<?xml version="1.0" encoding="utf-8"?>
<!-- Generator: Adobe Illustrator 18.0.0, SVG Export Plug-In . SVG Version: 6.00 Build 0)  -->
<!DOCTYPE svg PUBLIC "-//W3C//DTD SVG 1.1//EN" "http://www.w3.org/Graphics/SVG/1.1/DTD/svg11.dtd">
<svg version="1.1" id="Layer_1" xmlns="http://www.w3.org/2000/svg" xmlns:xlink="http://www.w3.org/1999/xlink" x="0px" y="0px"
	 viewBox="0 0 12 12" enable-background="new 0 0 12 12" xml:space="preserve">
<path d="M10.4,1.9C9.3,0.7,7.9,0.1,6.4,0C6.3,0,6.2,0,6.2,0c0,0-0.1,0-0.1,0C6,0,6,0,6,0C4.3,0,2.9,0.6,1.7,1.8S0,4.3,0,6
	s0.6,3.1,1.8,4.2S4.3,12,6,12c0,0,0,0,0.1,0s0,0,0.1,0h0c0.1,0,0.1,0,0.2,0c1.6-0.1,2.9-0.7,4-1.9S12,8.4,12,8.4s0-0.8,0-2.4
	S11.5,3,10.4,1.9z M4.2,1.1C3.6,1.8,3.1,2.8,2.8,4C2.2,3.9,1.7,3.8,1.3,3.7C1.9,2.4,2.9,1.5,4.2,1.1z M0.7,6c0-0.5,0.1-1.1,0.3-1.6
	c0.4,0.1,1,0.2,1.7,0.3C2.6,5.1,2.6,5.6,2.6,6c0,0.5,0,1.1,0.1,1.6C2.1,7.7,1.5,7.8,1.1,7.9C0.9,7.3,0.7,6.7,0.7,6z M1.4,8.6
	c0.4-0.1,0.9-0.1,1.5-0.2c0.3,1,0.7,1.9,1.3,2.6C3,10.5,2.1,9.7,1.4,8.6z M5.6,11.2c-0.4-0.1-0.8-0.4-1.2-1S3.8,9.1,3.6,8.3
	c0.6,0,1.3-0.1,2-0.1V11.2z M5.6,7.5c-0.8,0-1.5,0-2.2,0.1C3.4,7,3.4,6.5,3.4,6c0-0.4,0-0.8,0.1-1.2c0.7,0,1.4,0.1,2.2,0.1V7.5z
	 M5.6,4.1c-0.7,0-1.4,0-2.1-0.1C3.7,3.2,4,2.5,4.4,1.9S5.2,1,5.6,0.8V4.1z M10.7,3.7C10.4,3.8,9.9,3.9,9.2,4C9,2.8,8.6,1.9,8.1,1.2
	C9.3,1.7,10.1,2.5,10.7,3.7z M6.4,0.8c0.5,0.1,0.9,0.5,1.3,1.1S8.2,3.2,8.4,4c-0.6,0-1.3,0.1-2.1,0.1V0.8z M6.4,4.9
	c0.8,0,1.5,0,2.2-0.1c0,0.4,0.1,0.8,0.1,1.2c0,0.5,0,1.1-0.1,1.6C7.9,7.5,7.1,7.5,6.4,7.5V4.9z M6.4,11.2v-3c0.7,0,1.4,0,2,0.1
	c-0.2,0.8-0.5,1.4-0.8,1.9S6.8,11.1,6.4,11.2z M8.1,10.8c0.5-0.6,0.8-1.5,1-2.5c0.6,0.1,1.1,0.1,1.5,0.3C10,9.6,9.1,10.4,8.1,10.8z
	 M10.9,7.9c-0.4-0.1-1-0.2-1.6-0.3C9.3,7.1,9.4,6.6,9.4,6c0-0.4,0-0.9-0.1-1.3c0.8-0.1,1.3-0.2,1.7-0.3c0.2,0.5,0.3,1.1,0.3,1.6
	C11.3,6.7,11.1,7.3,10.9,7.9z"/>
</svg>
