<?xml version="1.0" encoding="utf-8"?>
<!-- Generator: Adobe Illustrator 18.0.0, SVG Export Plug-In . SVG Version: 6.00 Build 0)  -->
<!DOCTYPE svg PUBLIC "-//W3C//DTD SVG 1.1//EN" "http://www.w3.org/Graphics/SVG/1.1/DTD/svg11.dtd">
<svg version="1.1" id="Layer_1" xmlns="http://www.w3.org/2000/svg" xmlns:xlink="http://www.w3.org/1999/xlink" x="0px" y="0px"
	 viewBox="0 0 12 12" enable-background="new 0 0 12 12" xml:space="preserve">
<path d="M10.7,0.3c0.2,0.2,0.3,0.5,0.3,0.8v9.8c0,0.3-0.1,0.6-0.3,0.8S10.3,12,10,12H2.5c-0.2,0-0.4-0.1-0.5-0.2s-0.2-0.3-0.2-0.6
	V9.7H1.3c-0.1,0-0.2,0-0.2-0.1S1,9.5,1,9.4s0-0.2,0.1-0.3S1.2,9,1.3,9h0.4V7.5H1.3c-0.1,0-0.2,0-0.2-0.1S1,7.2,1,7.1s0-0.2,0.1-0.3
	s0.2-0.1,0.2-0.1h0.4V5.2H1.3c-0.1,0-0.2,0-0.3-0.1S1,5,1,4.9s0-0.2,0.1-0.3s0.2-0.1,0.3-0.1h0.4V3H1.3C1.2,3,1.1,3,1,2.9
	S0.9,2.7,0.9,2.6S1,2.4,1,2.4s0.2-0.1,0.3-0.1h0.4V0.8c0-0.2,0.1-0.4,0.2-0.5S2.2,0,2.5,0H10C10.3,0,10.5,0.1,10.7,0.3z M8.5,11.2
	V0.8h-6h0v0v1.5h0.4c0.1,0,0.2,0,0.3,0.1s0.1,0.2,0.1,0.3s0,0.2-0.1,0.3S2.9,3,2.8,3H2.5v1.5h0.4c0.1,0,0.2,0,0.2,0.1
	s0.1,0.2,0.1,0.3s0,0.2-0.1,0.3S3,5.2,2.9,5.2H2.5v1.5h0.4c0.1,0,0.2,0,0.3,0.1S3.2,7,3.2,7.1s0,0.2-0.1,0.3S2.9,7.5,2.8,7.5H2.5V9
	h0.4C2.9,9,3,9,3.1,9.1s0.1,0.2,0.1,0.3s0,0.2-0.1,0.3S2.9,9.7,2.8,9.7H2.5v1.5H8.5z M10.3,1.1c0-0.1,0-0.2-0.1-0.3S10.1,0.8,10,0.8
	H9.2v10.5H10c0.1,0,0.2,0,0.3-0.1s0.1-0.2,0.1-0.3V1.1z"/>
</svg>
