<?xml version="1.0" encoding="utf-8"?>
<!-- Generator: Adobe Illustrator 18.0.0, SVG Export Plug-In . SVG Version: 6.00 Build 0)  -->
<!DOCTYPE svg PUBLIC "-//W3C//DTD SVG 1.1//EN" "http://www.w3.org/Graphics/SVG/1.1/DTD/svg11.dtd">
<svg version="1.1" id="Layer_1" xmlns="http://www.w3.org/2000/svg" xmlns:xlink="http://www.w3.org/1999/xlink" x="0px" y="0px"
	 viewBox="0 0 12 12" enable-background="new 0 0 12 12" xml:space="preserve">
<path d="M7,0L7,0c0.2,0,0.4,0.1,0.5,0.2s0.2,0.3,0.2,0.5c0,0.1,0,0.1,0,0.2L7,4.5h2.2c0.3,0,0.5,0.2,0.7,0.4S10,5.4,9.8,5.6l-4.2,6
	C5.4,11.9,5.2,12,5,12c-0.1,0-0.2,0-0.3-0.1c-0.2-0.1-0.3-0.2-0.4-0.3s-0.1-0.3-0.1-0.5l0.7-4l-2.2,0c-0.3,0-0.5-0.1-0.7-0.4
	S2,6.1,2.2,5.9l4.2-5.6c0,0,0,0,0,0c0-0.1,0.1-0.1,0.1-0.1C6.7,0.1,6.8,0,7,0C6.9,0,7,0,7,0z M2.8,6.3l3,0L5,11.2l4.2-6h-3L7,0.8
	L2.8,6.3z"/>
</svg>
