<?xml version="1.0" encoding="utf-8"?>
<!-- Generator: Adobe Illustrator 18.0.0, SVG Export Plug-In . SVG Version: 6.00 Build 0)  -->
<!DOCTYPE svg PUBLIC "-//W3C//DTD SVG 1.1//EN" "http://www.w3.org/Graphics/SVG/1.1/DTD/svg11.dtd">
<svg version="1.1" id="Layer_1" xmlns="http://www.w3.org/2000/svg" xmlns:xlink="http://www.w3.org/1999/xlink" x="0px" y="0px"
	 viewBox="0 0 12 12" enable-background="new 0 0 12 12" xml:space="preserve">
<path d="M6.7,6.2V4.5c0-0.1,0-0.2,0.1-0.3S7,4.1,7.1,4.1h0.6c0.1,0,0.2,0,0.3,0.1s0.1,0.2,0.1,0.3s0,0.2-0.1,0.3S7.9,4.9,7.8,4.9
	H7.5V6l2,5.3C9.7,11.8,9.4,12,9.2,12h0H2.8c-0.2,0-0.5-0.2-0.3-0.6l2-5.3V4.9H4.2c-0.1,0-0.2,0-0.3-0.1C3.9,4.7,3.9,4.6,3.9,4.5
	s0-0.2,0.1-0.3c0.1-0.1,0.2-0.1,0.3-0.1h0.6c0.1,0,0.2,0,0.3,0.1s0.1,0.2,0.1,0.3v1.7l-1.6,5.1h4.7L6.7,6.2z M4.9,3
	c0-0.2,0.1-0.4,0.2-0.5s0.3-0.2,0.5-0.2S6,2.3,6.2,2.5S6.4,2.8,6.4,3S6.3,3.4,6.2,3.5S5.8,3.8,5.6,3.8S5.2,3.7,5.1,3.5
	S4.9,3.2,4.9,3z M6.4,1c0-0.3,0.1-0.5,0.3-0.7S7.1,0,7.4,0c0.3,0,0.5,0.1,0.7,0.3C8.3,0.5,8.4,0.7,8.4,1S8.3,1.5,8.1,1.7
	C7.9,1.9,7.7,2,7.4,2C7.1,2,6.9,1.9,6.7,1.7S6.4,1.3,6.4,1z"/>
</svg>
