<?xml version="1.0" encoding="utf-8"?>
<!-- Generator: Adobe Illustrator 18.0.0, SVG Export Plug-In . SVG Version: 6.00 Build 0)  -->
<!DOCTYPE svg PUBLIC "-//W3C//DTD SVG 1.1//EN" "http://www.w3.org/Graphics/SVG/1.1/DTD/svg11.dtd">
<svg version="1.1" id="Layer_1" xmlns="http://www.w3.org/2000/svg" xmlns:xlink="http://www.w3.org/1999/xlink" x="0px" y="0px"
	 viewBox="0 0 12 12" enable-background="new 0 0 12 12" xml:space="preserve">
<path d="M11.8,1C11.9,1.1,12,1.3,12,1.5v6.8c0,0.2-0.1,0.4-0.2,0.5S11.5,9,11.2,9H5l-2.2,2.1c-0.1,0.1-0.2,0.1-0.3,0.1
	c0,0-0.1,0-0.1,0c-0.2-0.1-0.2-0.2-0.2-0.4V9H0.7C0.5,9,0.4,8.9,0.2,8.8S0,8.5,0,8.3V1.5C0,1.3,0.1,1.1,0.2,1s0.3-0.2,0.5-0.2h10.5
	C11.5,0.8,11.6,0.8,11.8,1z M11.2,1.5H0.7v6.8H3V10l1.7-1.7h6.5V1.5z M2.4,3.7C2.3,3.6,2.2,3.5,2.2,3.4s0-0.2,0.1-0.3S2.5,3,2.6,3
	h6.8c0.1,0,0.2,0,0.3,0.1s0.1,0.2,0.1,0.3s0,0.2-0.1,0.3S9.5,3.8,9.4,3.8H2.6C2.5,3.8,2.4,3.7,2.4,3.7z M2.4,5.2
	C2.3,5.1,2.2,5,2.2,4.9s0-0.2,0.1-0.3s0.2-0.1,0.3-0.1h6.8c0.1,0,0.2,0,0.3,0.1s0.1,0.2,0.1,0.3s0,0.2-0.1,0.3S9.5,5.3,9.4,5.3H2.6
	C2.5,5.3,2.4,5.2,2.4,5.2z M2.4,6.7C2.3,6.6,2.2,6.5,2.2,6.4s0-0.2,0.1-0.3S2.5,6,2.6,6h4.5c0.1,0,0.2,0,0.3,0.1s0.1,0.2,0.1,0.3
	s0,0.2-0.1,0.3S7.2,6.8,7.1,6.8H2.6C2.5,6.8,2.4,6.7,2.4,6.7z"/>
</svg>
