<?xml version="1.0" encoding="utf-8"?>
<!-- Generator: Adobe Illustrator 18.0.0, SVG Export Plug-In . SVG Version: 6.00 Build 0)  -->
<!DOCTYPE svg PUBLIC "-//W3C//DTD SVG 1.1//EN" "http://www.w3.org/Graphics/SVG/1.1/DTD/svg11.dtd">
<svg version="1.1" id="Layer_1" xmlns="http://www.w3.org/2000/svg" xmlns:xlink="http://www.w3.org/1999/xlink" x="0px" y="0px"
	 viewBox="0 0 12 12" enable-background="new 0 0 12 12" xml:space="preserve">
<path d="M9.8,0.8H9v2.5c0,1.2-0.7,2.2-2.1,2.9c0.7,0.4,1.3,0.8,1.6,1.3S9,8.5,9,9.2c0,0.7,0,1.4,0,2.1h0.8c0.1,0,0.2,0,0.3,0.1
	s0.1,0.2,0.1,0.3s0,0.2-0.1,0.3S9.9,12,9.8,12H2.2C2.1,12,2,12,2,11.9s-0.1-0.2-0.1-0.3s0-0.2,0.1-0.3s0.2-0.1,0.3-0.1H3
	c0-0.7,0-1.4,0-2.1c0-0.7,0.2-1.3,0.5-1.8s0.9-0.9,1.6-1.3C3.7,5.4,3,4.5,3,3.3V0.8H2.2C2.1,0.8,2,0.7,2,0.6S1.9,0.5,1.9,0.4
	s0-0.2,0.1-0.3S2.1,0,2.2,0h7.5C9.9,0,10,0,10,0.1s0.1,0.2,0.1,0.3s0,0.2-0.1,0.3S9.9,0.8,9.8,0.8z M3.8,9.2c0,0.7,0,1.4,0,2.1h4.5
	c0-0.7,0-1.4,0-2.1c0-0.6-0.2-1.1-0.5-1.5S6.9,6.9,6,6.6C5.1,6.9,4.5,7.3,4.2,7.7S3.8,8.6,3.8,9.2z M8.2,0.8H3.8v2.5
	c0,0.5,0.1,0.9,0.4,1.3S5.1,5.4,6,5.7C6.9,5.4,7.5,5,7.8,4.6s0.4-0.8,0.4-1.3V0.8z"/>
</svg>
