<?xml version="1.0" encoding="utf-8"?>
<!-- Generator: Adobe Illustrator 18.0.0, SVG Export Plug-In . SVG Version: 6.00 Build 0)  -->
<!DOCTYPE svg PUBLIC "-//W3C//DTD SVG 1.1//EN" "http://www.w3.org/Graphics/SVG/1.1/DTD/svg11.dtd">
<svg version="1.1" id="Layer_1" xmlns="http://www.w3.org/2000/svg" xmlns:xlink="http://www.w3.org/1999/xlink" x="0px" y="0px"
	 viewBox="0 0 12 12" enable-background="new 0 0 12 12" xml:space="preserve">
<path d="M9.4,3.4v5.3c0,0.9-0.3,1.7-1,2.4S6.9,12,6,12s-1.7-0.3-2.4-1s-1-1.4-1-2.4V3.4c0-0.9,0.3-1.7,1-2.4S5.1,0,6,0
	s1.7,0.3,2.4,1S9.4,2.4,9.4,3.4z M8.6,3.4c0-0.7-0.3-1.3-0.8-1.8S6.7,0.8,6,0.8S4.7,1,4.2,1.5S3.4,2.6,3.4,3.4v5.3
	c0,0.7,0.3,1.3,0.8,1.8s1.1,0.8,1.9,0.8s1.3-0.3,1.8-0.8s0.8-1.1,0.8-1.8V3.4z M6.4,2.6v1.9c0,0.1,0,0.2-0.1,0.3S6.1,4.9,6,4.9
	s-0.2,0-0.3-0.1S5.6,4.6,5.6,4.5V2.6c0-0.1,0-0.2,0.1-0.3S5.9,2.2,6,2.2s0.2,0,0.3,0.1S6.4,2.5,6.4,2.6z"/>
</svg>
