<?xml version="1.0" encoding="utf-8"?>
<!-- Generator: Adobe Illustrator 18.0.0, SVG Export Plug-In . SVG Version: 6.00 Build 0)  -->
<!DOCTYPE svg PUBLIC "-//W3C//DTD SVG 1.1//EN" "http://www.w3.org/Graphics/SVG/1.1/DTD/svg11.dtd">
<svg version="1.1" id="Layer_1" xmlns="http://www.w3.org/2000/svg" xmlns:xlink="http://www.w3.org/1999/xlink" x="0px" y="0px"
	 viewBox="0 0 12 12" enable-background="new 0 0 12 12" xml:space="preserve">
<path d="M12,6h-0.8v4.9c0,0.2-0.1,0.4-0.2,0.5s-0.3,0.2-0.5,0.2h-9c-0.2,0-0.4-0.1-0.5-0.2s-0.2-0.3-0.2-0.5V6H0V3.8
	c0-0.2,0.1-0.4,0.2-0.5S0.5,3,0.8,3h1.3C1.7,2.6,1.5,2.2,1.5,1.7c0-0.4,0.1-0.7,0.3-1s0.6-0.4,1.1-0.4c0.6,0,1.2,0.2,1.7,0.7
	c0.5,0.5,1,1,1.4,1.6c1-1.5,2-2.3,3.1-2.3c0.5,0,0.8,0.1,1.1,0.4c0.2,0.3,0.4,0.6,0.4,1c0,0.5-0.2,0.9-0.6,1.3h1.3
	c0.2,0,0.4,0.1,0.5,0.2S12,3.5,12,3.8V6z M0.8,5.2h4.9V3.8H0.8V5.2z M1.5,10.9h4.1V6H1.5V10.9z M2.2,1.7c0,0.4,0.2,0.7,0.6,0.9
	S3.6,3,4.1,3h1.3C5,2.5,4.6,2.1,4.2,1.7S3.3,1.1,2.9,1.1C2.5,1.1,2.2,1.3,2.2,1.7z M11.2,3.8H6.4v1.5h4.9V3.8z M10.5,6H6.4v4.9h4.1
	V6z M6.7,3H8c0.5,0,0.9-0.1,1.3-0.3s0.6-0.5,0.6-0.9c0-0.4-0.2-0.6-0.7-0.6C8.3,1.1,7.5,1.8,6.7,3z"/>
</svg>
