<?xml version="1.0" encoding="utf-8"?>
<!-- Generator: Adobe Illustrator 18.0.0, SVG Export Plug-In . SVG Version: 6.00 Build 0)  -->
<!DOCTYPE svg PUBLIC "-//W3C//DTD SVG 1.1//EN" "http://www.w3.org/Graphics/SVG/1.1/DTD/svg11.dtd">
<svg version="1.1" id="Layer_1" xmlns="http://www.w3.org/2000/svg" xmlns:xlink="http://www.w3.org/1999/xlink" x="0px" y="0px"
	 viewBox="0 0 12 12" enable-background="new 0 0 12 12" xml:space="preserve">
<path d="M11.8,1.3C11.9,1.5,12,1.7,12,1.9v6.4c0,0.2-0.1,0.4-0.2,0.5S11.5,9,11.2,9H6.4v1.1h1.9c0.1,0,0.2,0,0.3,0.1
	s0.1,0.2,0.1,0.3s0,0.2-0.1,0.3s-0.2,0.1-0.3,0.1H3.8c-0.1,0-0.2,0-0.3-0.1s-0.1-0.2-0.1-0.3s0-0.2,0.1-0.3s0.2-0.1,0.3-0.1h1.9V9
	H0.8C0.5,9,0.4,8.9,0.2,8.8S0,8.5,0,8.2V1.9c0-0.2,0.1-0.4,0.2-0.5s0.3-0.2,0.5-0.2h10.5C11.5,1.1,11.6,1.2,11.8,1.3z M11.2,1.9H0.8
	v6.4h10.5V1.9z"/>
</svg>
