<?xml version="1.0" encoding="utf-8"?>
<!-- Generator: Adobe Illustrator 18.0.0, SVG Export Plug-In . SVG Version: 6.00 Build 0)  -->
<!DOCTYPE svg PUBLIC "-//W3C//DTD SVG 1.1//EN" "http://www.w3.org/Graphics/SVG/1.1/DTD/svg11.dtd">
<svg version="1.1" id="Layer_1" xmlns="http://www.w3.org/2000/svg" xmlns:xlink="http://www.w3.org/1999/xlink" x="0px" y="0px"
	 viewBox="0 0 12 12" enable-background="new 0 0 12 12" xml:space="preserve">
<path d="M10.9,8.6c0,0.1,0.1,0.1,0.2,0.3s0.1,0.2,0.1,0.3s0,0.1,0,0.2s0,0.2,0,0.2C11,9.9,10.7,10,10.2,10H8c0,0.5-0.2,1-0.6,1.4
	S6.5,12,6,12s-1-0.2-1.4-0.6S4,10.5,4,10H1.9c-0.5,0-0.8-0.1-1-0.4c0-0.1,0-0.1,0-0.2s0-0.2,0-0.2S0.9,9,1,8.9s0.1-0.2,0.2-0.3
	s0.1-0.2,0.2-0.3c0,0,0.1-0.1,0.3-0.3s0.3-0.3,0.3-0.4S2,7.3,2.1,7.2s0.2-0.3,0.2-0.5s0.1-0.3,0.1-0.4V3.8c0-1.1,0.3-2,1-2.7
	S5,0,6,0s1.9,0.4,2.6,1.1s1.1,1.6,1.1,2.7v2.4c0,0.5,0.3,1.2,1,2.1C10.7,8.5,10.8,8.6,10.9,8.6z M10.3,9.2c0-0.1-0.1-0.2-0.3-0.3
	C9.2,7.9,8.8,7,8.8,6.3V3.8C8.8,3,8.5,2.3,8,1.7S6.8,0.8,6,0.8S4.5,1.1,4,1.7S3.2,3,3.2,3.8v2.4c0,0.2,0,0.3-0.1,0.5S3,7.1,3,7.2
	S2.9,7.5,2.8,7.7S2.6,8,2.5,8.1S2.4,8.3,2.2,8.5S2,8.8,2,8.8C1.8,9,1.8,9.1,1.7,9.2c0,0,0.1,0,0.2,0H10.3
	C10.2,9.2,10.2,9.2,10.3,9.2z M7.2,10H4.8c0,0.3,0.1,0.6,0.4,0.9s0.5,0.4,0.9,0.4s0.6-0.1,0.9-0.4S7.2,10.3,7.2,10z"/>
</svg>
