<svg viewBox="0 0 28 27" enable-background="new 0 0 28 27" xmlns="http://www.w3.org/2000/svg"><title>bug-pin-dot</title><defs><linearGradient x1="0%" y1="18.355%" x2="0%" y2="100%" id="shadow-gradient"><stop stop-color="#000" stop-opacity="0" offset="0%"></stop><stop stop-color="#000" stop-opacity=".8" offset="100%"></stop></linearGradient>
</defs><path d="M10,26.466 L27.733,16 L10,16 L10,26.466" id="shadow" fill="url(#shadow-gradient)" /><path d="M18,10.5 C18,14.918 10,23.5 10,23.5 C10,23.5 2,14.918 2,10.5 C2,6.082 5.582,2.5 10,2.5 C14.418,2.5 18,6.082 18,10.5" id="fill" /><path d="M10,0.466 C4.486,0.466 0,4.964 0,10.492 C0,15.46 7.111,23.36 8.537,24.893 L10,26.466 L11.463,24.893 C12.888,23.36 20,15.46 20,10.492 C20,4.964 15.514,0.466 10,0.466 Z M10,2.472 C14.418,2.472 18,6.063 18,10.492 C18,14.922 10,23.526 10,23.526 C10,23.526 2,14.922 2,10.492 C2,6.063 5.582,2.472 10,2.472 Z M5.5,11 C5.5,8.515 7.515,6.5 10,6.5 C12.485,6.5 14.5,8.515 14.5,11 C14.5,13.485 12.485,15.5 10,15.5 C7.515,15.5 5.5,13.485 5.5,11 Z M8,11 C8,9.895 8.895,9 10,9 C11.105,9 12,9.895 12,11 C12,12.105 11.105,13 10,13 C8.895,13 8,12.105 8,11 Z" id="outline" fill="#fff" fill-rule="evenodd" /></svg>