<svg viewBox="0 0 28 27" enable-background="new 0 0 28 27" xmlns="http://www.w3.org/2000/svg"><title>bug-pin-dot</title><defs><linearGradient x1="0%" y1="18.355%" x2="0%" y2="100%" id="shadow-gradient"><stop stop-color="#000" stop-opacity="0" offset="0%"></stop><stop stop-color="#000" stop-opacity=".8" offset="100%"></stop></linearGradient></defs><path d="M10,26.466 L27.733,16 L10,16 L10,26.466" id="shadow" fill="url(#shadow-gradient)" /><path d="M18,10.5 C18,14.918 10,23.5 10,23.5 C10,23.5 2,14.918 2,10.5 C2,6.082 5.582,2.5 10,2.5 C14.418,2.5 18,6.082 18,10.5" id="fill" /><path d="M13.3359174,8.01406764 C12.5159385,7.0858326 11.3215168,6.5 9.98736567,6.5 C7.50934263,6.5 5.5,8.515 5.5,11 C5.5,13.485 7.50934263,15.5 9.98736567,15.5 C12.4653887,15.5 14.4747313,13.485 14.4747313,11 C14.4747313,10.593 14.4039307,10.206 14.3022171,9.83 L15.2569912,8.39253163 L10.8092501,12.9893135 C10.607552,13.1973135 10.2682854,13.2023135 10.0603812,13.0013135 L7.15282512,10.1903135 C6.94905829,9.99331349 6.94905829,9.67431349 7.15282512,9.47731349 L7.87893837,8.77531349 C8.08167084,8.57931349 8.41162828,8.57931349 8.61539511,8.77531349 L10.4896361,10.5883135 L13.3359174,8.01406764 Z M10,0.466 C4.486,0.466 0,4.964 0,10.492 C0,15.46 7.111,23.36 8.537,24.893 L10,26.466 L11.463,24.893 C12.888,23.36 20,15.46 20,10.492 C20,4.964 15.514,0.466 10,0.466 L10,0.466 Z M10,2.472 C14.418,2.472 18,6.063 18,10.492 C18,14.922 10,23.526 10,23.526 C10,23.526 2,14.922 2,10.492 C2,6.063 5.582,2.472 10,2.472 L10,2.472 Z" id="outline" fill="#fff" fill-rule="evenodd" /></svg>